<?xml version="1.0" encoding="UTF-8"?>
<svg version="1.1" xmlns="http://www.w3.org/2000/svg" width="330" height="328">
<path d="M0 0 C0.33 0.99 0.66 1.98 1 3 C-0.34980727 5.62378267 -1.7550742 8.06567897 -3.3125 10.5625 C-4.25465843 12.11464032 -5.1947029 13.66806547 -6.1328125 15.22265625 C-6.85645996 16.41785889 -6.85645996 16.41785889 -7.59472656 17.63720703 C-9.7184907 21.20805298 -11.70031721 24.85198746 -13.6875 28.5 C-17.6697022 35.76109996 -21.89437959 42.85649596 -26.1875 49.9375 C-32.8811628 60.99290555 -39.19712973 72.228787 -45.43359375 83.546875 C-49.58743631 91.08388215 -53.84181494 98.56055062 -58.140625 106.015625 C-60.14231767 109.48761187 -62.10437477 112.97894354 -64.046875 116.484375 C-64.5428418 117.36867188 -65.03880859 118.25296875 -65.54980469 119.1640625 C-66.49296508 120.84587308 -67.42646966 122.53314776 -68.34863281 124.2265625 C-68.76983398 124.97164063 -69.19103516 125.71671875 -69.625 126.484375 C-69.98851562 127.14147461 -70.35203125 127.79857422 -70.7265625 128.47558594 C-72 130 -72 130 -73.85571289 130.87646484 C-76.8223816 131.04737847 -78.17952229 130.06779984 -80.68359375 128.4921875 C-81.59971436 127.92459717 -82.51583496 127.35700684 -83.4597168 126.7722168 C-84.44238525 126.14613525 -85.42505371 125.52005371 -86.4375 124.875 C-87.46593018 124.23409424 -88.49436035 123.59318848 -89.55395508 122.93286133 C-91.68437374 121.60410938 -93.81155275 120.27014986 -95.93554688 118.93115234 C-100.33696889 116.15747101 -104.76255535 113.42342518 -109.1875 110.6875 C-110.02659912 110.16655762 -110.86569824 109.64561523 -111.73022461 109.10888672 C-119.12347144 104.52291477 -126.55891511 100.00768727 -134 95.5 C-143.91075091 89.49550041 -153.78837002 83.44086799 -163.6328125 77.328125 C-169.91117873 73.43055322 -176.20542984 69.55882066 -182.5 65.6875 C-183.55010254 65.04159912 -184.60020508 64.39569824 -185.68212891 63.73022461 C-187.74701984 62.46028578 -189.8119612 61.19042891 -191.87695312 59.9206543 C-196.1744215 57.27773812 -200.47095857 54.63330949 -204.76757812 51.98901367 C-207.9176152 50.05069403 -211.06811268 48.11312503 -214.21875 46.17578125 C-216.31252075 44.88805458 -218.40627026 43.60029336 -220.5 42.3125 C-222.17570068 41.28201538 -222.17570068 41.28201538 -223.88525391 40.23071289 C-229.2394283 36.93692348 -234.5899897 33.6375343 -239.9296875 30.3203125 C-240.84596924 29.75127197 -241.76225098 29.18223145 -242.70629883 28.59594727 C-244.45946422 27.50645385 -246.2119282 26.4158308 -247.96362305 25.32397461 C-253.59088099 21.82918628 -259.27931427 18.50792844 -265.11328125 15.3671875 C-265.73589844 14.91601562 -266.35851562 14.46484375 -267 14 C-267 13.01 -267 12.02 -267 11 C-208.26763469 8.21950445 -149.53011536 5.58569518 -90.78380585 3.1170578 C-88.00301816 3.00012691 -85.22224125 2.88294275 -82.44146729 2.76568604 C-71.92726885 2.32250052 -61.41292327 1.88310588 -50.89831543 1.44973755 C-47.71752165 1.31860764 -44.53677986 1.18631462 -41.3560791 1.052948 C-37.67778704 0.89885405 -33.99938653 0.74766765 -30.3208828 0.59871483 C-28.37874645 0.51944496 -26.43672223 0.43744208 -24.4947052 0.3553009 C-16.32571072 0.0288635 -8.17516746 -0.05788212 0 0 Z " fill="#8644FB" transform="translate(316,184)"/>
<path d="M0 0 C10.35155246 2.31284687 20.34615246 10.41058028 29.28125 16.0390625 C43.65436519 25.08204259 58.15191783 33.92990366 72.73339844 42.63232422 C79.58409806 46.72914803 86.36739495 50.93013514 93.14575195 55.14526367 C99.06458563 58.81938173 105.0181645 62.42949264 111 66 C120.42927066 71.63134433 129.76567383 77.40541041 139.09570312 83.19921875 C157.70170479 94.73726722 157.70170479 94.73726722 176.4375 106.0625 C178.62522134 107.37463103 180.81273889 108.68710193 183 110 C184.1034375 110.65613281 185.206875 111.31226563 186.34375 111.98828125 C187.3646875 112.61089844 188.385625 113.23351562 189.4375 113.875 C190.32308594 114.40867187 191.20867187 114.94234375 192.12109375 115.4921875 C192.74113281 115.98976563 193.36117188 116.48734375 194 117 C194 117.99 194 118.98 194 120 C150.36196047 122.20552277 106.70985549 124.0325633 63.05322266 125.82659912 C26.42905964 127.32086016 26.42905964 127.32086016 -10.1875 128.98828125 C-10.94788574 129.02491253 -11.70827148 129.06154381 -12.49169922 129.09928513 C-19.75938914 129.45050925 -27.02644315 129.81286492 -34.29296875 130.1875 C-45.54277309 130.75947062 -56.73399108 131.17944183 -68 131 C-70.21291491 117.17108618 -62.91123809 107.44653297 -56 96 C-55.22929528 94.6986109 -54.45961197 93.39661581 -53.69140625 92.09375 C-52.2964878 89.74307225 -50.88397772 87.4040608 -49.4609375 85.0703125 C-41.00842803 71.1622856 -32.96680151 57.00085343 -24.98339844 42.82006836 C-20.69572114 35.21094171 -16.35992479 27.63036945 -12 20.0625 C-11.37681885 18.97855957 -10.7536377 17.89461914 -10.11157227 16.77783203 C-6.84382396 11.11503574 -3.5062938 5.51842832 0 0 Z " fill="#8643FB" transform="translate(68,40)"/>
<path d="M0 0 C-1.51669882 3.58678086 -3.62455233 5.84333396 -6.39453125 8.5546875 C-7.70454102 9.84826172 -7.70454102 9.84826172 -9.04101562 11.16796875 C-9.95560547 12.06128906 -10.87019531 12.95460938 -11.8125 13.875 C-18.69315674 20.49352216 -18.69315674 20.49352216 -25.01171875 27.6328125 C-25.66785156 28.41398437 -26.32398438 29.19515625 -27 30 C-27.66 30 -28.32 30 -29 30 C-29 30.66 -29 31.32 -29 32 C-30.49609375 33.4375 -30.49609375 33.4375 -32.4375 35 C-35.15188238 37.14525044 -35.15188238 37.14525044 -37 40 C-37.66 40 -38.32 40 -39 40 C-39 40.66 -39 41.32 -39 42 C-40.4980011 43.47799683 -40.4980011 43.47799683 -42.55200195 45.18310547 C-46.61726623 48.64187138 -50.41163404 52.28162417 -54.16796875 56.0703125 C-54.81067215 56.71443085 -55.45337555 57.35854919 -56.11555481 58.02218628 C-58.14192915 60.05409005 -60.16478049 62.08945857 -62.1875 64.125 C-63.55380162 65.49632777 -64.9203363 66.86742337 -66.28710938 68.23828125 C-69.34405226 71.30511414 -72.39860284 74.37430847 -75.45133972 77.44532776 C-76.89613423 78.89573102 -78.34630085 80.34077745 -79.796875 81.78540039 C-81.89487976 83.89433225 -83.86760863 86.06252763 -85.8125 88.3125 C-86.41707031 89.00988281 -87.02164063 89.70726562 -87.64453125 90.42578125 C-88.09183594 90.94527344 -88.53914063 91.46476562 -89 92 C-92.57117528 91.43395232 -95.1806648 90.53863863 -98.265625 88.6640625 C-99.46541992 87.94077759 -99.46541992 87.94077759 -100.68945312 87.20288086 C-101.53443359 86.68218018 -102.37941406 86.16147949 -103.25 85.625 C-104.12591797 85.09205322 -105.00183594 84.55910645 -105.90429688 84.01000977 C-127.70611521 70.67508893 -127.70611521 70.67508893 -135 65 C-133.63436542 61.66995931 -132.50268099 60.38394197 -129.25 58.87109375 C-128.43539307 58.48566406 -127.62078613 58.10023437 -126.78149414 57.703125 C-125.40465454 57.07664062 -125.40465454 57.07664062 -124 56.4375 C-122.5293811 55.75107422 -122.5293811 55.75107422 -121.02905273 55.05078125 C-117.36104037 53.34866203 -113.68175921 51.67208699 -110 50 C-109.2281134 49.64883118 -108.45622681 49.29766235 -107.66094971 48.93585205 C-96.91933045 44.04930335 -86.16533456 39.19034948 -75.40704346 34.34063721 C-54.41801017 24.93093065 -54.41801017 24.93093065 -33.74560547 14.85375977 C-28.01919716 11.95303 -22.17379101 9.34689503 -16.28759766 6.78833008 C-11.99023989 4.91531218 -7.79776222 2.92289721 -3.64648438 0.74316406 C-2 0 -2 0 0 0 Z " fill="#893BFA" transform="translate(330,42)"/>
<path d="M0 0 C8.95946143 4.5861606 17.30012103 9.97837067 25.70361328 15.49609375 C29.64520612 18.07744734 33.60484554 20.63087027 37.5625 23.1875 C39.00138144 24.11836693 40.44019109 25.04934485 41.87890625 25.98046875 C42.90886719 26.64691406 43.93882813 27.31335938 45 28 C44 31 44 31 41.50097656 32.51123047 C40.39206055 33.04119629 39.28314453 33.57116211 38.140625 34.1171875 C37.53316437 34.4104744 36.92570374 34.70376129 36.29983521 35.00593567 C34.28819032 35.97308544 32.26955376 36.92448794 30.25 37.875 C28.83785832 38.54752351 27.42591416 39.2204619 26.01416016 39.89379883 C3.65165291 50.52156734 -18.99369995 60.44561026 -41.93505859 69.75439453 C-43.94145721 70.56980362 -45.94455471 71.39339474 -47.94384766 72.22607422 C-48.83507324 72.59361816 -49.72629883 72.96116211 -50.64453125 73.33984375 C-51.41772705 73.66202881 -52.19092285 73.98421387 -52.98754883 74.31616211 C-55 75 -55 75 -58 75 C-57.39331641 71.45569062 -56.03458173 69.4953377 -53.75 66.75 C-53.03328125 65.87859375 -52.3165625 65.0071875 -51.578125 64.109375 C-51.17271484 63.62146484 -50.76730469 63.13355469 -50.34960938 62.63085938 C-47.70915249 59.44014808 -45.10930458 56.21618947 -42.5 53 C-41.36461518 51.60414076 -40.22919915 50.20830691 -39.09375 48.8125 C-36.08986532 45.11541117 -33.11344863 41.39708501 -30.14453125 37.671875 C-27.90056681 34.87611603 -25.63789396 32.09626932 -23.37280273 29.31762695 C-17.6227292 22.26310389 -11.94227479 15.16060642 -6.33984375 7.98828125 C-4.24373944 5.3112866 -2.12933061 2.65059861 0 0 Z " fill="#8741FB" transform="translate(72,220)"/>
<path d="M0 0 C10.1930154 3.07097259 10.1930154 3.07097259 13 6 C13 6.99 13 7.98 13 9 C-30.63803953 11.20552277 -74.29014451 13.0325633 -117.94677734 14.82659912 C-154.57094036 16.32086016 -154.57094036 16.32086016 -191.1875 17.98828125 C-192.32807861 18.04322817 -192.32807861 18.04322817 -193.49169922 18.09928513 C-200.75938914 18.45050925 -208.02644315 18.81286492 -215.29296875 19.1875 C-226.54277309 19.75947062 -237.73399108 20.17944183 -249 20 C-248.360625 19.525625 -247.72125 19.05125 -247.0625 18.5625 C-245.11706694 17.16261274 -245.11706694 17.16261274 -244 16 C-241.87474601 15.77895517 -239.7423416 15.62656544 -237.609375 15.5 C-236.59747101 15.43956764 -236.59747101 15.43956764 -235.56512451 15.37791443 C-233.29373194 15.24549071 -231.02197761 15.12195605 -228.75 15 C-227.96069092 14.95642365 -227.17138184 14.91284729 -226.3581543 14.86795044 C-208.01070095 13.86785033 -189.65468814 13.50761204 -171.28549194 13.16183472 C-162.58643272 12.99688354 -153.88865535 12.79446122 -145.19116211 12.56130981 C-143.67411075 12.52115281 -142.15702077 12.48242304 -140.63989258 12.44528198 C-127.24966796 12.49006618 -127.24966796 12.49006618 -114.1005249 10.49316406 C-110.61983537 9.67596309 -107.06734181 9.77978318 -103.5078125 9.71875 C-102.68425262 9.70034058 -101.86069275 9.68193115 -101.01217651 9.66296387 C-98.3831887 9.60434486 -95.75413641 9.55149508 -93.125 9.5 C-89.66914319 9.43203884 -86.21347685 9.35831704 -82.7578125 9.28125 C-81.57628098 9.26088684 -81.57628098 9.26088684 -80.37088013 9.2401123 C-76.1445934 9.14558361 -72.16994101 8.75673301 -68 8 C-64.31797142 7.69950645 -60.62881248 7.57876247 -56.9375 7.4375 C-55.30820557 7.37163696 -55.30820557 7.37163696 -53.64599609 7.30444336 C-45.13391079 6.99564912 -36.64128874 6.99591404 -28.125 7.0625 C-16.94358968 7.14482532 -6.07170293 6.54424748 5 5 C4.175 4.54625 3.35 4.0925 2.5 3.625 C1.675 3.08875 0.85 2.5525 0 2 C0 1.34 0 0.68 0 0 Z " fill="#B271E3" transform="translate(249,151)"/>
<path d="M0 0 C0 0.33 0 0.66 0 1 C-28.31502865 3.22776761 -56.69938833 4.22149344 -85.07263184 5.39685059 C-93.03593007 5.72746695 -100.99902771 6.06286545 -108.96214199 6.3978796 C-115.15862902 6.65853069 -121.35514347 6.91843304 -127.55177307 7.17567444 C-141.03694463 7.73708377 -154.51931926 8.33926995 -168 9 C-166.35 9.33 -164.7 9.66 -163 10 C-163.33 10.99 -163.66 11.98 -164 13 C-167.02734375 12.51171875 -167.02734375 12.51171875 -170.0546875 12.0234375 C-170.69664062 12.01570312 -171.33859375 12.00796875 -172 12 C-172.66 12.66 -173.32 13.32 -174 14 C-174 13.34 -174 12.68 -174 12 C-177.43742918 11.94197302 -180.87473253 11.90639514 -184.3125 11.875 C-185.77719727 11.84986328 -185.77719727 11.84986328 -187.27148438 11.82421875 C-188.20927734 11.81777344 -189.14707031 11.81132812 -190.11328125 11.8046875 C-191.40939331 11.78897705 -191.40939331 11.78897705 -192.73168945 11.77294922 C-195.28180721 11.84909832 -195.28180721 11.84909832 -198 14 C-202.35318776 14.20729466 -205.80116935 14.04970766 -210 13 C-210.598125 13.15597656 -211.19625 13.31195313 -211.8125 13.47265625 C-214.2221581 14.05355597 -216.27545793 14.06304566 -218.75 14 C-221.99120898 13.95710165 -225.04594409 14.07572997 -228.25 14.5625 C-232 15 -232 15 -234.9375 14.5 C-239.0809265 13.8235222 -242.87028044 14.40348495 -247 15 C-246.01 15.66 -245.02 16.32 -244 17 C-243.75 19.5625 -243.75 19.5625 -244 22 C-245 23 -245 23 -248.06640625 23.33203125 C-252.96968019 22.91815013 -255.84947875 21.27510913 -259.9375 18.6875 C-260.62134766 18.28337891 -261.30519531 17.87925781 -262.00976562 17.46289062 C-263.96484375 16.26171875 -263.96484375 16.26171875 -267 14 C-267 13.01 -267 12.02 -267 11 C-208.26763469 8.21950445 -149.53011536 5.58569518 -90.78380585 3.1170578 C-88.00301816 3.00012691 -85.22224125 2.88294275 -82.44146729 2.76568604 C-71.92726885 2.32250052 -61.41292327 1.88310588 -50.89831543 1.44973755 C-47.71752165 1.31860764 -44.53677986 1.18631462 -41.3560791 1.052948 C-37.67778704 0.89885405 -33.99938653 0.74766765 -30.3208828 0.59871483 C-28.37874645 0.51944496 -26.43672223 0.43744208 -24.4947052 0.3553009 C-16.32571072 0.0288635 -8.17516746 -0.05788212 0 0 Z " fill="#D19DF3" transform="translate(316,184)"/>
<path d="M0 0 C-1.51669882 3.58678086 -3.62455233 5.84333396 -6.39453125 8.5546875 C-7.26787109 9.41707031 -8.14121094 10.27945313 -9.04101562 11.16796875 C-10.41290039 12.50794922 -10.41290039 12.50794922 -11.8125 13.875 C-18.69315674 20.49352216 -18.69315674 20.49352216 -25.01171875 27.6328125 C-25.66785156 28.41398437 -26.32398438 29.19515625 -27 30 C-27.66 30 -28.32 30 -29 30 C-29 30.66 -29 31.32 -29 32 C-30.49609375 33.4375 -30.49609375 33.4375 -32.4375 35 C-35.15188238 37.14525044 -35.15188238 37.14525044 -37 40 C-37.66 40 -38.32 40 -39 40 C-39 40.66 -39 41.32 -39 42 C-41.5 43.625 -41.5 43.625 -44 45 C-44 43 -44 41 -44 39 C-43.01 38.34 -42.02 37.68 -41 37 C-41.495 35.515 -41.495 35.515 -42 34 C-40.515 33.505 -40.515 33.505 -39 33 C-39 32.34 -39 31.68 -39 31 C-38.34 31 -37.68 31 -37 31 C-36.731875 30.38125 -36.46375 29.7625 -36.1875 29.125 C-35 27 -35 27 -32 25 C-32.33 24.01 -32.66 23.02 -33 22 C-32.01 22 -31.02 22 -30 22 C-30.33 20.68 -30.66 19.36 -31 18 C-31.51304687 18.62132813 -32.02609375 19.24265625 -32.5546875 19.8828125 C-35.6530071 22.56538314 -38.12894331 23.06577766 -42.125 23.875 C-43.36507813 24.14054687 -44.60515625 24.40609375 -45.8828125 24.6796875 C-46.91148437 24.78539063 -47.94015625 24.89109375 -49 25 C-49.66 24.34 -50.32 23.68 -51 23 C-45.79017299 20.52693469 -40.57978324 18.05506011 -35.36889648 15.58422852 C-33.60084234 14.74567857 -31.83293527 13.90681845 -30.06518555 13.06762695 C-13.71853678 5.30793702 -13.71853678 5.30793702 -6.39453125 1.91796875 C-5.16440308 1.34792114 -5.16440308 1.34792114 -3.90942383 0.76635742 C-2 0 -2 0 0 0 Z " fill="#7576F8" transform="translate(330,42)"/>
<path d="M0 0 C0.495 0.99 0.495 0.99 1 2 C0.06421005 4.35981813 -0.93347808 6.69631264 -2 9 C-2.66 9 -3.32 9 -4 9 C-4.33 10.32 -4.66 11.64 -5 13 C-5.99 13 -6.98 13 -8 13 C-8.12375 13.7425 -8.2475 14.485 -8.375 15.25 C-9.46802585 20.05931374 -11.26728947 22.49791183 -15.0625 25.625 C-17.97875712 27.95485552 -17.97875712 27.95485552 -20 31 C-18.4221875 30.9690625 -18.4221875 30.9690625 -16.8125 30.9375 C-13 31 -13 31 -10.5859375 31.5625 C-7.67161621 32.05555738 -5.67927091 31.72606422 -2.8125 31.0625 C1.8807947 30 1.8807947 30 4 30 C4 29.34 4 28.68 4 28 C4.66 28 5.32 28 6 28 C6 27.34 6 26.68 6 26 C6.99 26 7.98 26 9 26 C9 25.34 9 24.68 9 24 C14.75 21 14.75 21 17 21 C17.33 20.34 17.66 19.68 18 19 C19.99281757 18.74286225 21.98829861 18.49163848 23.9921875 18.34375 C26.30982249 18.08691645 26.30982249 18.08691645 29 16 C31.33199388 15.92094936 33.66832622 15.91201231 36 16 C32.82848247 18.11434502 29.55459829 19.68505643 26.10546875 21.2734375 C25.4134285 21.59365875 24.72138824 21.91388 24.00837708 22.24380493 C21.73671721 23.29187511 19.46254539 24.33430038 17.1875 25.375 C16.41365967 25.72949219 15.63981934 26.08398438 14.8425293 26.44921875 C3.66355025 31.55750158 -7.58836811 36.43463718 -19 41 C-19.64297028 41.25883972 -20.28594055 41.51767944 -20.94839478 41.78436279 C-31.45668212 46 -31.45668212 46 -35 46 C-34.39331641 42.45569062 -33.03458173 40.4953377 -30.75 37.75 C-30.03328125 36.87859375 -29.3165625 36.0071875 -28.578125 35.109375 C-28.17271484 34.62146484 -27.76730469 34.13355469 -27.34960938 33.63085938 C-24.70915219 30.44014773 -22.10933045 27.21616897 -19.5 24 C-18.37501975 22.61717143 -17.25002009 21.23435865 -16.125 19.8515625 C-12.94641181 15.93960125 -9.79852858 12.00366297 -6.65625 8.0625 C-4.47325248 5.34405025 -2.24570958 2.66678013 0 0 Z " fill="#9281E9" transform="translate(49,249)"/>
<path d="M0 0 C2.475 0.495 2.475 0.495 5 1 C3.73926126 4.27756052 2.34670898 7.37144083 0.671875 10.45703125 C0.209021 11.30990723 -0.25383301 12.1627832 -0.73071289 13.04150391 C-1.23207764 13.95593262 -1.73344238 14.87036133 -2.25 15.8125 C-2.77650146 16.77591309 -3.30300293 17.73932617 -3.84545898 18.73193359 C-8.36497947 26.94984557 -13.07440815 35.04948958 -17.83227539 43.13110352 C-22.21571473 50.5950944 -26.43541157 58.13606321 -30.53735352 65.75830078 C-32.48964872 69.3652829 -34.37720897 72.82189491 -37 76 C-41.93713863 75.471358 -45.2805576 73.18242512 -49.3125 70.5 C-50.28026367 69.87544922 -50.28026367 69.87544922 -51.26757812 69.23828125 C-52.86730236 68.19211239 -54.43677864 67.09996632 -56 66 C-56 65.67 -56 65.34 -56 65 C-52.15393275 64.91055658 -48.75316408 65.18850506 -45 66 C-41.25838897 66 -37.71046443 65.48661829 -34 65 C-33.71125 64.2575 -33.4225 63.515 -33.125 62.75 C-32.75375 61.8425 -32.3825 60.935 -32 60 C-31.566875 58.88625 -31.566875 58.88625 -31.125 57.75 C-30 56 -30 56 -27.875 55.25 C-27.25625 55.1675 -26.6375 55.085 -26 55 C-25.87625 54.030625 -25.7525 53.06125 -25.625 52.0625 C-25.41875 51.051875 -25.2125 50.04125 -25 49 C-24.01 48.505 -24.01 48.505 -23 48 C-23 46.68 -23 45.36 -23 44 C-22.01 43.67 -21.02 43.34 -20 43 C-19.34 39.7 -18.68 36.4 -18 33 C-17.34 33 -16.68 33 -16 33 C-16 28.71 -16 24.42 -16 20 C-12 18 -12 18 -9 17 C-8.34 17.33 -7.68 17.66 -7 18 C-7 15.69 -7 13.38 -7 11 C-5.68 10.67 -4.36 10.34 -3 10 C-3 9.34 -3 8.68 -3 8 C-2.34 8 -1.68 8 -1 8 C-1 7.01 -1 6.02 -1 5 C-0.34 5 0.32 5 1 5 C0.505 2.525 0.505 2.525 0 0 Z " fill="#9FADEF" transform="translate(280,239)"/>
<path d="M0 0 C-1.47930193 3.96479572 -3.23647057 6.77588233 -6 10 C-5.67 7.36 -5.34 4.72 -5 2 C-8.60447434 2.1387881 -12.20848712 2.28723935 -15.8125 2.4375 C-17.34874023 2.49647461 -17.34874023 2.49647461 -18.91601562 2.55664062 C-19.89892578 2.59853516 -20.88183594 2.64042969 -21.89453125 2.68359375 C-23.25348511 2.73858032 -23.25348511 2.73858032 -24.63989258 2.79467773 C-27.15048782 2.9208205 -27.15048782 2.9208205 -30 4 C-32.22818441 4.06937062 -34.45834524 4.08457084 -36.6875 4.0625 C-38.45673828 4.04896484 -38.45673828 4.04896484 -40.26171875 4.03515625 C-41.16535156 4.02355469 -42.06898438 4.01195312 -43 4 C-43.33 4.66 -43.66 5.32 -44 6 C-44.33 5.67 -44.66 5.34 -45 5 C-48.42954922 4.74354885 -51.87453345 4.81474557 -55.3125 4.8125 C-56.25673828 4.80025391 -57.20097656 4.78800781 -58.17382812 4.77539062 C-63.15220196 4.76525137 -67.80284513 5.06760971 -72.6953125 6.0078125 C-80.30103443 7.39791966 -87.86797366 7.18219457 -95.5625 7.0625 C-97.7335467 7.03477425 -99.90452571 7.01013607 -102.07566833 6.99131775 C-104.0213023 6.97363424 -105.9668406 6.94620859 -107.91235352 6.91821289 C-111.03849046 6.85116543 -111.03849046 6.85116543 -114 8 C-115.37946991 8.11310242 -116.7634302 8.17592781 -118.1472168 8.20532227 C-119.40498932 8.23523254 -119.40498932 8.23523254 -120.68817139 8.26574707 C-121.59931702 8.2824646 -122.51046265 8.29918213 -123.44921875 8.31640625 C-124.40282288 8.33723267 -125.356427 8.35805908 -126.33892822 8.3795166 C-129.45503692 8.44568137 -132.57123047 8.50444248 -135.6875 8.5625 C-137.82039426 8.60536866 -139.95328814 8.6482561 -142.08618164 8.69116211 C-159.05882982 9.01916284 -176.02480126 9.12291277 -193 9 C-193 8.67 -193 8.34 -193 8 C-147.43481084 5.89797865 -101.86793557 3.83722047 -56.29611969 1.8835907 C-53.19386318 1.75027345 -50.09164712 1.61604969 -46.98944092 1.48156738 C-42.08764626 1.26919803 -37.18575339 1.05925856 -32.28377342 0.85121155 C-30.48654035 0.7745981 -28.68933959 0.6972221 -26.89217567 0.6190033 C-17.92425634 0.22937155 -8.97920174 -0.13214241 0 0 Z " fill="#8D28E0" transform="translate(317,185)"/>
<path d="M0 0 C3.87924021 0.6873411 6.86047911 2.47867223 10.25 4.4375 C10.84828613 4.78296875 11.44657227 5.1284375 12.06298828 5.484375 C19.48626369 9.80809394 26.74477207 14.40188152 34 19 C33.01 19.66 32.02 20.32 31 21 C30.505 19.515 30.505 19.515 30 18 C29.29875 18.04125 28.5975 18.0825 27.875 18.125 C24.59438891 17.98236474 22.0947682 17.07369509 19 16 C17.00630969 15.63079809 15.00720923 15.28674418 13 15 C13.66 14.34 14.32 13.68 15 13 C14.01 12.34 13.02 11.68 12 11 C12 10.34 12 9.68 12 9 C8.29059707 7.23803361 5.7162427 6.7276893 1.8125 7.875 C-0.72152062 8.93609085 -1.76674485 9.60555857 -3.17578125 11.98828125 C-4.13122572 14.42400514 -4.13122572 14.42400514 -5 18 C-5.99 18 -6.98 18 -8 18 C-8.0825 19.051875 -8.165 20.10375 -8.25 21.1875 C-9.06264697 25.31845545 -10.31102901 26.87732401 -13 30 C-13 30.99 -13 31.98 -13 33 C-13.66 33.66 -14.32 34.32 -15 35 C-15.16687448 37.58354218 -15.16687448 37.58354218 -15 40 C-16.093125 40.268125 -17.18625 40.53625 -18.3125 40.8125 C-21.61692663 41.87663739 -22.94960422 42.34654664 -25 45 C-23.1959668 39.93839828 -20.54230168 35.36761433 -17.9375 30.6875 C-17.45087891 29.80900391 -16.96425781 28.93050781 -16.46289062 28.02539062 C-14.97833258 25.34854085 -13.48923502 22.67424984 -12 20 C-11.12625406 18.42320369 -10.25255339 16.8463823 -9.37890625 15.26953125 C-8.58641391 13.84608882 -7.79347119 12.42289702 -7 11 C-6.63898193 10.34862061 -6.27796387 9.69724121 -5.90600586 9.02612305 C-4.1229923 5.84642256 -2.2790245 2.84878062 0 0 Z " fill="#94A8F1" transform="translate(68,40)"/>
<path d="M0 0 C-1.53271547 3.65031725 -3.72153877 5.93939751 -6.53515625 8.6953125 C-7.42654297 9.57574219 -8.31792969 10.45617188 -9.23632812 11.36328125 C-10.6352832 12.73033203 -10.6352832 12.73033203 -12.0625 14.125 C-13.90972167 15.93789615 -15.75488421 17.75289358 -17.59765625 19.5703125 C-18.41758057 20.37227051 -19.23750488 21.17422852 -20.08227539 22.00048828 C-22.0514634 23.85596361 -22.0514634 23.85596361 -23 26 C-23.66 25.67 -24.32 25.34 -25 25 C-23.25 20.125 -23.25 20.125 -21 19 C-21 18.34 -21 17.68 -21 17 C-23.97 16.01 -26.94 15.02 -30 14 C-26.46659163 11.00388826 -22.47791255 9.3365825 -18.25 7.5625 C-13.81405319 5.66874197 -9.41293612 3.77766995 -5.125 1.5625 C-2 0 -2 0 0 0 Z " fill="#949BEC" transform="translate(330,42)"/>
<path d="M0 0 C2.475 0.495 2.475 0.495 5 1 C2.86640452 6.57705259 0.03556415 11.69940378 -2.8125 16.9375 C-3.33392578 17.91396484 -3.85535156 18.89042969 -4.39257812 19.89648438 C-7.21199003 25.08828533 -10.05752814 29.60342144 -14 34 C-14.66 34.99 -15.32 35.98 -16 37 C-16.66 37 -17.32 37 -18 37 C-18 35.68 -18 34.36 -18 33 C-17.34 33 -16.68 33 -16 33 C-16 28.71 -16 24.42 -16 20 C-12 18 -12 18 -9 17 C-8.34 17.33 -7.68 17.66 -7 18 C-7 15.69 -7 13.38 -7 11 C-5.68 10.67 -4.36 10.34 -3 10 C-3 9.34 -3 8.68 -3 8 C-2.34 8 -1.68 8 -1 8 C-1 7.01 -1 6.02 -1 5 C-0.34 5 0.32 5 1 5 C0.67 3.35 0.34 1.7 0 0 Z " fill="#7E5EED" transform="translate(280,239)"/>
<path d="M0 0 C0 0.33 0 0.66 0 1 C-0.69448242 1.01981934 -1.38896484 1.03963867 -2.10449219 1.06005859 C-5.31997525 1.15664048 -8.53492277 1.26576748 -11.75 1.375 C-13.38775391 1.42140625 -13.38775391 1.42140625 -15.05859375 1.46875 C-20.28880065 1.65443782 -25.29996022 1.98413886 -30.4375 3 C-39.92991787 4.71187516 -49.63397335 4.47948023 -59.25 4.625 C-61.34188619 4.66289464 -63.43376447 4.70122826 -65.52563477 4.73999023 C-82.35049242 5.03650758 -99.17308618 5.12183908 -116 5 C-116 4.67 -116 4.34 -116 4 C-105.01016981 3.47060548 -94.02001276 2.94862326 -83.02941513 2.43539429 C-77.92275865 2.19671002 -72.81623455 1.95573438 -67.70996094 1.70898438 C-45.12821392 0.61941688 -22.61342369 -0.38915115 0 0 Z " fill="#8832D1" transform="translate(240,189)"/>
<path d="M0 0 C4.55564061 1.58532809 8.31475769 3.99003081 12.3125 6.625 C12.95767578 7.04523438 13.60285156 7.46546875 14.26757812 7.8984375 C15.84760724 8.92838241 17.42416047 9.96365628 19 11 C18 14 18 14 15.25610352 15.64160156 C14.05240072 16.23560298 12.84286662 16.81787869 11.62890625 17.390625 C10.67261574 17.85393219 10.67261574 17.85393219 9.69700623 18.32659912 C8.34847368 18.9769102 6.9974874 19.62215374 5.64428711 20.26269531 C3.56786141 21.24745731 1.50149284 22.25128186 -0.56445312 23.2578125 C-1.87444411 23.88657614 -3.18497374 24.51421904 -4.49609375 25.140625 C-5.11697372 25.44260803 -5.7378537 25.74459106 -6.37754822 26.0557251 C-7.89097415 26.76543106 -9.4433075 27.39102623 -11 28 C-11.66 27.67 -12.32 27.34 -13 27 C-12.01 26.67 -11.02 26.34 -10 26 C-10 25.34 -10 24.68 -10 24 C-8.68 24 -7.36 24 -6 24 C-6 23.01 -6 22.02 -6 21 C-4.02 21 -2.04 21 0 21 C0 20.01 0 19.02 0 18 C1.65 17.34 3.3 16.68 5 16 C5 15.34 5 14.68 5 14 C5.99 13.34 6.98 12.68 8 12 C8.33 11.01 8.66 10.02 9 9 C8.01 8.67 7.02 8.34 6 8 C6 7.01 6 6.02 6 5 C5.195625 4.731875 4.39125 4.46375 3.5625 4.1875 C2.716875 3.795625 1.87125 3.40375 1 3 C0.67 2.01 0.34 1.02 0 0 Z " fill="#9A3FE4" transform="translate(98,237)"/>
<path d="M0 0 C1.20376955 4.36366463 1.26018805 7.01143286 -1 11 C-1.33 11.33 -1.66 11.66 -2 12 C-1.896875 13.0725 -1.79375 14.145 -1.6875 15.25 C-2 19 -2 19 -3.33203125 20.46875 C-4.87929479 21.65728031 -6.43915331 22.82936498 -8 24 C-8 24.99 -8 25.98 -8 27 C-8.99 26.67 -9.98 26.34 -11 26 C-11 26.66 -11 27.32 -11 28 C-11.33 28.33 -11.66 28.66 -12 29 C-12 29.99 -12 30.98 -12 32 C-14.97 32.495 -14.97 32.495 -18 33 C-16.56691741 29.18048536 -14.81072239 25.70305564 -12.8125 22.1484375 C-11.88824219 20.50101563 -11.88824219 20.50101563 -10.9453125 18.8203125 C-10.30335937 17.68335937 -9.66140625 16.54640625 -9 15.375 C-8.35804687 14.2303125 -7.71609375 13.085625 -7.0546875 11.90625 C-2.29546523 3.44319784 -2.29546523 3.44319784 0 0 Z " fill="#8057F0" transform="translate(42,85)"/>
<path d="M0 0 C1.0209375 0.433125 1.0209375 0.433125 2.0625 0.875 C5.07520781 2.09192219 5.07520781 2.09192219 8.625 2.9375 C11.83384758 3.94769276 12.93708676 4.50278924 15 7 C15.66 7.33 16.32 7.66 17 8 C17.33 8.99 17.66 9.98 18 11 C18.66 11.33 19.32 11.66 20 12 C19.42558597 15.87729472 17.70745361 18.21519058 15 21 C13.68 21 12.36 21 11 21 C11 21.66 11 22.32 11 23 C10.34 23 9.68 23 9 23 C9 22.01 9 21.02 9 20 C9.66 19.67 10.32 19.34 11 19 C11.33 18.01 11.66 17.02 12 16 C11.34 15.67 10.68 15.34 10 15 C10.33 14.34 10.66 13.68 11 13 C10.690625 12.38125 10.38125 11.7625 10.0625 11.125 C9 9 9 9 9 5 C7.3603125 5.309375 7.3603125 5.309375 5.6875 5.625 C2 6 2 6 -1 4 C-0.67 2.68 -0.34 1.36 0 0 Z " fill="#921FF3" transform="translate(87,234)"/>
<path d="M0 0 C2.9719385 1.12451727 5.33440687 2.22293791 8 4 C8 4.99 8 5.98 8 7 C0.18337869 7.39797315 -7.63354012 7.78947792 -15.45086002 8.17345428 C-19.08352716 8.35207422 -22.71607139 8.53265293 -26.34838867 8.71826172 C-43.5738261 9.5969297 -60.74599689 10.2349111 -78 10 C-78 9.67 -78 9.34 -78 9 C-51.01018553 7.41789986 -24.01135094 6.1523361 3 5 C3 4.01 3 3.02 3 2 C2.01 1.67 1.02 1.34 0 1 C0 0.67 0 0.34 0 0 Z " fill="#EEC9FB" transform="translate(254,153)"/>
<path d="M0 0 C-3.4307529 2.2871686 -7.0321438 3.92665531 -10.7734375 5.625 C-11.91457504 6.14634521 -11.91457504 6.14634521 -13.07876587 6.67822266 C-14.68704176 7.41236076 -16.29589239 8.14524093 -17.90527344 8.87695312 C-20.36005313 9.99320328 -22.81297855 11.11344662 -25.265625 12.234375 C-26.83062118 12.94815348 -28.39572195 13.66170269 -29.9609375 14.375 C-30.69130219 14.70838379 -31.42166687 15.04176758 -32.17416382 15.38525391 C-34.1123081 16.26562997 -36.0555437 17.13368525 -38 18 C-38.92893066 18.42539062 -39.85786133 18.85078125 -40.81494141 19.2890625 C-43 20 -43 20 -46 19 C-45.34 19 -44.68 19 -44 19 C-44 18.01 -44 17.02 -44 16 C-42.37548581 15.66430703 -40.75037083 15.3315204 -39.125 15 C-38.22007813 14.814375 -37.31515625 14.62875 -36.3828125 14.4375 C-34 14 -34 14 -32 14 C-32 13.34 -32 12.68 -32 12 C-31.34 12 -30.68 12 -30 12 C-30 11.34 -30 10.68 -30 10 C-29.01 10 -28.02 10 -27 10 C-27 9.34 -27 8.68 -27 8 C-21.25 5 -21.25 5 -19 5 C-18.67 4.34 -18.34 3.68 -18 3 C-16.00718243 2.74286225 -14.01170139 2.49163848 -12.0078125 2.34375 C-7.45306081 1.56394815 -5.08653749 -0.19194481 0 0 Z " fill="#9574E8" transform="translate(85,265)"/>
<path d="M0 0 C-1.32 0.33 -2.64 0.66 -4 1 C-3.505 3.97 -3.505 3.97 -3 7 C-6.01031744 7.93423645 -6.86650268 8.04449911 -10 7 C-12.26928837 7.46491217 -12.26928837 7.46491217 -14.6875 8.3125 C-17.96815381 9.37558576 -21.18904172 10.28755484 -24.5625 11 C-25.696875 11.33 -26.83125 11.66 -28 12 C-28.33 12.99 -28.66 13.98 -29 15 C-34.51204215 17.4607331 -40.09194399 18.83753528 -46 20 C-42.16120153 16.73233195 -37.71877425 14.83594047 -33.18359375 12.734375 C-32.33072281 12.33671936 -31.47785187 11.93906372 -30.59913635 11.52935791 C-28.80073809 10.69316346 -27.00114328 9.85953821 -25.20043945 9.02832031 C-22.43913761 7.75075767 -19.6853908 6.4578069 -16.93164062 5.1640625 C-15.18273283 4.35321444 -13.43339808 3.54328652 -11.68359375 2.734375 C-10.85854843 2.34489685 -10.03350311 1.9554187 -9.18345642 1.55413818 C-8.03194847 1.0279892 -8.03194847 1.0279892 -6.85717773 0.49121094 C-6.18307358 0.17827087 -5.50896942 -0.13466919 -4.81443787 -0.45709229 C-3 -1 -3 -1 0 0 Z " fill="#A378E6" transform="translate(256,78)"/>
<path d="M0 0 C3.45549805 1.29352235 6.5007834 2.79929963 9.625 4.7578125 C10.4910083 5.29768799 11.3570166 5.83756348 12.24926758 6.39379883 C13.15700928 6.96509521 14.06475098 7.5363916 15 8.125 C16.87882388 9.298309 18.75773009 10.47148617 20.63671875 11.64453125 C21.5498584 12.2163916 22.46299805 12.78825195 23.40380859 13.37744141 C26.86304075 15.53938018 30.33568213 17.67899813 33.8125 19.8125 C34.82957031 20.43769531 35.84664062 21.06289062 36.89453125 21.70703125 C37.58933594 22.13371094 38.28414062 22.56039062 39 23 C35.58389775 23.94314127 32.54865136 24.08065117 29 24 C28.67 23.01 28.34 22.02 28 21 C26.35 20.67 24.7 20.34 23 20 C23 19.34 23 18.68 23 18 C22.34 18 21.68 18 21 18 C19.31237149 16.3545622 17.6459651 14.68711423 16 13 C15.34 12.67 14.68 12.34 14 12 C14 11.01 14 10.02 14 9 C12.68 9 11.36 9 10 9 C10 8.34 10 7.68 10 7 C8.68 7 7.36 7 6 7 C6 6.01 6 5.02 6 4 C4.68 4 3.36 4 2 4 C1.34 2.68 0.68 1.36 0 0 Z " fill="#8077E9" transform="translate(102,60)"/>
<path d="M0 0 C0 0.33 0 0.66 0 1 C-1.04800781 1.09087891 -1.04800781 1.09087891 -2.1171875 1.18359375 C-3.02726562 1.26738281 -3.93734375 1.35117188 -4.875 1.4375 C-5.77992187 1.51871094 -6.68484375 1.59992188 -7.6171875 1.68359375 C-10.01110861 1.86989285 -10.01110861 1.86989285 -12 3 C-14.61092173 3.24793043 -17.19485172 3.43010882 -19.8125 3.5625 C-20.62114502 3.6049585 -21.42979004 3.64741699 -22.26293945 3.69116211 C-34.83043031 4.26635715 -47.42316981 4.08454793 -60 4 C-59.67 3.34 -59.34 2.68 -59 2 C-39.32187354 0.77103637 -19.72745026 -0.36835488 0 0 Z " fill="#882DD0" transform="translate(64,165)"/>
<path d="M0 0 C2.31 0.33 4.62 0.66 7 1 C5.4879454 4.55289859 3.40950829 6.83533556 0.68359375 9.546875 C-0.16267578 10.39121094 -1.00894531 11.23554687 -1.88085938 12.10546875 C-2.76580078 12.97816406 -3.65074219 13.85085937 -4.5625 14.75 C-5.45130859 15.63816406 -6.34011719 16.52632812 -7.25585938 17.44140625 C-13.85978903 24 -13.85978903 24 -15 24 C-15 22.35 -15 20.7 -15 19 C-14.34 19 -13.68 19 -13 19 C-13.33 18.01 -13.66 17.02 -14 16 C-12.35 16.33 -10.7 16.66 -9 17 C-8.67 14.69 -8.34 12.38 -8 10 C-6.35 9.67 -4.7 9.34 -3 9 C-3.33 8.01 -3.66 7.02 -4 6 C-3.34 6 -2.68 6 -2 6 C-1.34 4.02 -0.68 2.04 0 0 Z " fill="#966BE9" transform="translate(278,86)"/>
<path d="M0 0 C0 0.99 0 1.98 0 3 C0.3062434 4.33981486 0.63451555 5.67511887 1 7 C1.83144531 7.19335938 2.66289062 7.38671875 3.51953125 7.5859375 C4.60621094 7.84632813 5.69289062 8.10671875 6.8125 8.375 C7.89144531 8.63023437 8.97039062 8.88546875 10.08203125 9.1484375 C13.83902467 10.24485593 16.49090598 12.03470706 19 15 C19.6875 17.1875 19.6875 17.1875 20 19 C16.56898679 17.70706652 13.48528985 16.21380787 10.34765625 14.3203125 C9.05891602 13.54494141 9.05891602 13.54494141 7.74414062 12.75390625 C6.85919922 12.21636719 5.97425781 11.67882812 5.0625 11.125 C3.74088867 10.33029297 3.74088867 10.33029297 2.39257812 9.51953125 C-6.85477969 3.93648226 -6.85477969 3.93648226 -11 1 C-11 0.67 -11 0.34 -11 0 C-7.01803543 -1.05404945 -4.01804691 -0.84098656 0 0 Z " fill="#AFA3EF" transform="translate(160,258)"/>
<path d="M0 0 C6.40047513 2.34771526 12.51326518 4.87728585 18 9 C18 9.33 18 9.66 18 10 C14.62545836 10.33808357 11.25030319 10.66961318 7.875 11 C6.92367187 11.09539062 5.97234375 11.19078125 4.9921875 11.2890625 C0.30899618 11.74437277 -4.2876326 12.12693246 -9 12 C-9 11.34 -9 10.68 -9 10 C-5.01803543 8.94595055 -2.01804691 9.15901344 2 10 C2.33 8.35 2.66 6.7 3 5 C1.68 4.67 0.36 4.34 -1 4 C-0.67 2.68 -0.34 1.36 0 0 Z " fill="#8F26F3" transform="translate(238,147)"/>
<path d="M0 0 C1.65 0.33 3.3 0.66 5 1 C4.25 5.75 4.25 5.75 2 8 C1.34 7.67 0.68 7.34 0 7 C0.12375 8.3303125 0.12375 8.3303125 0.25 9.6875 C-0.05391197 13.71433365 -1.18236593 15.18236593 -4 18 C-4.66 18 -5.32 18 -6 18 C-6 18.66 -6 19.32 -6 20 C-8.5 21.625 -8.5 21.625 -11 23 C-11 21 -11 19 -11 17 C-10.01 16.34 -9.02 15.68 -8 15 C-8.33 14.01 -8.66 13.02 -9 12 C-8.01 11.67 -7.02 11.34 -6 11 C-6 10.34 -6 9.68 -6 9 C-5.34 9 -4.68 9 -4 9 C-3.731875 8.38125 -3.46375 7.7625 -3.1875 7.125 C-2 5 -2 5 1 3 C0.67 2.01 0.34 1.02 0 0 Z " fill="#796BF5" transform="translate(297,64)"/>
<path d="M0 0 C3.67434632 1.36544143 6.89986872 3.03250142 10.23828125 5.08203125 C11.22376953 5.68466797 12.20925781 6.28730469 13.22460938 6.90820312 C14.75311523 7.85083008 14.75311523 7.85083008 16.3125 8.8125 C17.82360352 9.73772461 17.82360352 9.73772461 19.36523438 10.68164062 C24.92845452 14.09205767 30.47209377 17.5326753 36 21 C35.01 21.495 35.01 21.495 34 22 C32.08425473 21.32780868 30.17173373 20.64272707 28.2890625 19.8828125 C25.98847922 18.99555683 23.67902722 18.31358819 21.3125 17.625 C17.19443864 16.27843668 14.73599798 14.44206197 12 11 C12 10.34 12 9.68 12 9 C11.34 9 10.68 9 10 9 C10 8.34 10 7.68 10 7 C8.63875 6.938125 8.63875 6.938125 7.25 6.875 C4 6 4 6 1.625 2.9375 C1.08875 1.968125 0.5525 0.99875 0 0 Z " fill="#A162E4" transform="translate(218,131)"/>
<path d="M0 0 C2.8203125 0.4609375 2.8203125 0.4609375 6.125 1.375 C7.22070312 1.67148437 8.31640625 1.96796875 9.4453125 2.2734375 C10.28835937 2.51320313 11.13140625 2.75296875 12 3 C12 3.66 12 4.32 12 5 C12.556875 5.20625 13.11375 5.4125 13.6875 5.625 C16.87277155 7.51894524 18.70517652 10.11676025 21 13 C21.98290968 14.01680311 22.97334787 15.02738219 24 16 C23.34 16.33 22.68 16.66 22 17 C19.56982422 15.73657227 19.56982422 15.73657227 16.5546875 13.81640625 C15.47832031 13.13642578 14.40195313 12.45644531 13.29296875 11.75585938 C12.15353553 11.02491149 11.01421405 10.29378941 9.875 9.5625 C8.72833103 8.83455119 7.58120111 8.10732792 6.43359375 7.38085938 C3.61776646 5.5943471 0.80691165 3.80047571 -2 2 C-1.34 1.34 -0.68 0.68 0 0 Z " fill="#757FF2" transform="translate(200,287)"/>
<path d="M0 0 C3.36313722 1.27106912 6.40000353 2.7171214 9.4765625 4.57421875 C10.72324707 5.32396973 10.72324707 5.32396973 11.99511719 6.08886719 C12.86297852 6.61641602 13.73083984 7.14396484 14.625 7.6875 C15.51348633 8.22407227 16.40197266 8.76064453 17.31738281 9.31347656 C23.60253445 13.12036468 29.84251265 16.98915961 36 21 C32.69564916 22.12377697 30.9493138 21.89554742 27.75 20.5625 C26.69039062 20.13130859 26.69039062 20.13130859 25.609375 19.69140625 C25.07828125 19.46324219 24.5471875 19.23507813 24 19 C24 17.68 24 16.36 24 15 C22.68 15 21.36 15 20 15 C20 14.34 20 13.68 20 13 C19.278125 12.896875 18.55625 12.79375 17.8125 12.6875 C14.74014552 11.93648002 12.67905871 10.64865151 10 9 C9.2575 8.814375 8.515 8.62875 7.75 8.4375 C6.88375 8.2209375 6.88375 8.2209375 6 8 C5.67 7.34 5.34 6.68 5 6 C2.97536745 5.34786708 2.97536745 5.34786708 1 5 C0.67 3.35 0.34 1.7 0 0 Z " fill="#A986E5" transform="translate(182,109)"/>
<path d="M0 0 C0.6875 1.8125 0.6875 1.8125 1 4 C-0.375 5.5625 -0.375 5.5625 -2 7 C-2.33 7.99 -2.66 8.98 -3 10 C-2.48953125 9.52949219 -1.9790625 9.05898438 -1.453125 8.57421875 C1.75760241 6.51383158 4.47808397 6.26652693 8.25 5.8125 C10.14492188 5.57466797 10.14492188 5.57466797 12.078125 5.33203125 C13.52445313 5.16767578 13.52445313 5.16767578 15 5 C12.84842642 7.15157358 11.33360159 7.82124844 8.53515625 8.9453125 C7.21161133 9.47705078 7.21161133 9.47705078 5.86132812 10.01953125 C4.93771484 10.38433594 4.01410156 10.74914062 3.0625 11.125 C1.68288086 11.68380859 1.68288086 11.68380859 0.27539062 12.25390625 C-0.60826172 12.60582031 -1.49191406 12.95773437 -2.40234375 13.3203125 C-3.21179443 13.64273926 -4.02124512 13.96516602 -4.85522461 14.29736328 C-7 15 -7 15 -10 15 C-9.41472053 11.07679858 -7.4922901 8.82550072 -5 5.8125 C-4.278125 4.93207031 -3.55625 4.05164063 -2.8125 3.14453125 C-1.90474803 2.07048851 -0.99437957 0.99437957 0 0 Z " fill="#A7B3E7" transform="translate(24,280)"/>
<path d="M0 0 C0.66 0.66 1.32 1.32 2 2 C3.093125 2 4.18625 2 5.3125 2 C8.86336874 2 10.85327714 2.47431619 14 4 C14 4.66 14 5.32 14 6 C9.57955965 7.92541866 5.35990202 8.70137444 0.62109375 9.4375 C-1.88800115 9.97596448 -3.77632654 10.74427852 -6 12 C-5.42655063 9.13275314 -5.1385485 8.1385485 -3 6 C-2.31246699 4.34183216 -1.64438717 2.67540664 -1 1 C-0.67 0.67 -0.34 0.34 0 0 Z " fill="#767CF3" transform="translate(27,278)"/>
<path d="M0 0 C1.1446875 0.2475 1.1446875 0.2475 2.3125 0.5 C5.03596236 1.09145396 5.03596236 1.09145396 8 1 C9.1446875 1.01160156 10.289375 1.02320313 11.46875 1.03515625 C12.81249889 1.04443262 14.15624895 1.05354166 15.5 1.0625 C16.17675781 1.07087891 16.85351562 1.07925781 17.55078125 1.08789062 C20.65160802 1.1031807 23.03415048 0.98861651 26 0 C26 0.66 26 1.32 26 2 C26.55985596 1.93941406 27.11971191 1.87882813 27.6965332 1.81640625 C30.23501499 1.54263034 32.77375125 1.27128868 35.3125 1 C36.19357422 0.90460938 37.07464844 0.80921875 37.98242188 0.7109375 C38.82998047 0.62070313 39.67753906 0.53046875 40.55078125 0.4375 C41.33106689 0.35371094 42.11135254 0.26992187 42.9152832 0.18359375 C45 0 45 0 48 0 C48 0.66 48 1.32 48 2 C48.66 2.33 49.32 2.66 50 3 C33.5 3.33 17 3.66 0 4 C0 2.68 0 1.36 0 0 Z " fill="#901FED" transform="translate(72,161)"/>
<path d="M0 0 C2.0078125 0.23046875 2.0078125 0.23046875 5.0078125 2.23046875 C6.0078125 5.23046875 6.0078125 5.23046875 7.0078125 8.23046875 C9.3178125 8.56046875 11.6278125 8.89046875 14.0078125 9.23046875 C14.6678125 10.88046875 15.3278125 12.53046875 16.0078125 14.23046875 C13.0078125 14.23046875 13.0078125 14.23046875 11.2578125 12.79296875 C8.97798005 10.95177707 8.97798005 10.95177707 5.5078125 10.79296875 C1.54235577 10.1556632 0.40717853 9.36810125 -1.9921875 6.23046875 C-2.3221875 5.24046875 -2.6521875 4.25046875 -2.9921875 3.23046875 C-4.99235216 2.02164779 -4.99235216 2.02164779 -6.9921875 1.23046875 C-5.11574989 -0.64596886 -2.49413049 0.05061888 0 0 Z " fill="#921DF2" transform="translate(217.9921875,111.76953125)"/>
<path d="M0 0 C0.33 0.66 0.66 1.32 1 2 C0.37943989 3.68437744 -0.29289322 5.35008418 -1 7 C-1.144375 7.70125 -1.28875 8.4025 -1.4375 9.125 C-2.12582103 11.41940344 -3.21445273 12.4473502 -5 14 C-4.34 14.33 -3.68 14.66 -3 15 C-6.625 20.875 -6.625 20.875 -10 22 C-10.433125 23.423125 -10.433125 23.423125 -10.875 24.875 C-12.21973749 28.61038193 -13.49258017 29.33859061 -17 31 C-15.70075769 26.70904474 -14.04986828 23.05939301 -11.77734375 19.19921875 C-11.15666016 18.14025391 -10.53597656 17.08128906 -9.89648438 15.99023438 C-9.25001953 14.90033203 -8.60355469 13.81042969 -7.9375 12.6875 C-7.28716797 11.57826172 -6.63683594 10.46902344 -5.96679688 9.32617188 C-1.16269066 1.16269066 -1.16269066 1.16269066 0 0 Z " fill="#924FE8" transform="translate(19,125)"/>
<path d="M0 0 C7.26 0 14.52 0 22 0 C22 0.33 22 0.66 22 1 C17.545 1.495 17.545 1.495 13 2 C13.99 2.66 14.98 3.32 16 4 C16.25 6.5625 16.25 6.5625 16 9 C15 10 15 10 12.4375 10.0625 C11.633125 10.041875 10.82875 10.02125 10 10 C9.87625 9.21625 9.7525 8.4325 9.625 7.625 C9.20882007 4.85942178 9.20882007 4.85942178 7 3 C7 3.66 7 4.32 7 5 C5.1875 4.75 5.1875 4.75 3 4 C2.01 2.68 1.02 1.36 0 0 Z " fill="#8C29EF" transform="translate(56,197)"/>
<path d="M0 0 C-1.47930193 3.96479572 -3.23647057 6.77588233 -6 10 C-5.67 7.36 -5.34 4.72 -5 2 C-8.60447434 2.1387881 -12.20848712 2.28723935 -15.8125 2.4375 C-17.34874023 2.49647461 -17.34874023 2.49647461 -18.91601562 2.55664062 C-19.89892578 2.59853516 -20.88183594 2.64042969 -21.89453125 2.68359375 C-23.25348511 2.73858032 -23.25348511 2.73858032 -24.63989258 2.79467773 C-27.15048782 2.9208205 -27.15048782 2.9208205 -30 4 C-31.55643549 4.01553817 -33.11400687 3.96798687 -34.66796875 3.87890625 C-36.00698242 3.80639648 -36.00698242 3.80639648 -37.37304688 3.73242188 C-38.30181641 3.67634766 -39.23058594 3.62027344 -40.1875 3.5625 C-41.12787109 3.51029297 -42.06824219 3.45808594 -43.03710938 3.40429688 C-45.35841501 3.27468082 -47.67928409 3.13971819 -50 3 C-50 2.67 -50 2.34 -50 2 C-44.6474092 1.71143822 -39.29462999 1.42676525 -33.94165039 1.14550781 C-32.12518903 1.04954017 -30.30878096 0.95255761 -28.49243164 0.85449219 C-9.13453923 -0.18928963 -9.13453923 -0.18928963 0 0 Z " fill="#852ECE" transform="translate(317,185)"/>
<path d="M0 0 C0.75 1.6875 0.75 1.6875 1 4 C-0.28725907 5.70250393 -1.62131719 7.37064759 -3 9 C-3 9.99 -3 10.98 -3 12 C-3.66 12.66 -4.32 13.32 -5 14 C-5.16687448 16.58354218 -5.16687448 16.58354218 -5 19 C-6.093125 19.268125 -7.18625 19.53625 -8.3125 19.8125 C-11.61692663 20.87663739 -12.94960422 21.34654664 -15 24 C-13.29539889 19.34442278 -11.00939406 15.08242841 -8.625 10.75 C-8.23828125 10.0178125 -7.8515625 9.285625 -7.453125 8.53125 C-7.06898437 7.83515625 -6.68484375 7.1390625 -6.2890625 6.421875 C-5.94568848 5.78862305 -5.60231445 5.15537109 -5.24853516 4.50292969 C-3.6594351 2.5900435 -2.41234694 2.37171583 0 2 C0 1.34 0 0.68 0 0 Z " fill="#989AED" transform="translate(58,61)"/>
<path d="M0 0 C3.84606725 -0.08944342 7.24683592 0.18850506 11 1 C11.99 1 12.98 1 14 1 C16 1 18 1 20 1 C19.67 3.31 19.34 5.62 19 8 C11.05820093 9.04891686 6.219696 5.76767138 0 1 C0 0.67 0 0.34 0 0 Z " fill="#6F8CF6" transform="translate(224,304)"/>
<path d="M0 0 C2.475 0.495 2.475 0.495 5 1 C4.62488281 1.43570313 4.24976563 1.87140625 3.86328125 2.3203125 C3.09564453 3.21363281 3.09564453 3.21363281 2.3125 4.125 C1.75949219 4.76695313 1.20648438 5.40890625 0.63671875 6.0703125 C-0.73367126 7.68599905 -2.05998668 9.33893054 -3.375 11 C-6.08725393 14.09971878 -8.96867982 16.66664903 -12.1328125 19.2890625 C-14.04890719 21.04481454 -15.50826645 22.8782175 -17 25 C-18.65 24.67 -20.3 24.34 -22 24 C-22.33 23.01 -22.66 22.02 -23 21 C-20.69 21 -18.38 21 -16 21 C-16 20.34 -16 19.68 -16 19 C-15.34 19 -14.68 19 -14 19 C-14 17.68 -14 16.36 -14 15 C-10.86406334 12.57677622 -7.59513939 10.6592951 -4 9 C-4 8.01 -4 7.02 -4 6 C-2.68 5.67 -1.36 5.34 0 5 C0 3.35 0 1.7 0 0 Z " fill="#AD72DE" transform="translate(258,109)"/>
<path d="M0 0 C-0.33 1.98 -0.66 3.96 -1 6 C1.97 6.495 1.97 6.495 5 7 C5 7.66 5 8.32 5 9 C5.66 9 6.32 9 7 9 C7 9.99 7 10.98 7 12 C7.7425 11.896875 8.485 11.79375 9.25 11.6875 C12 12 12 12 14.3125 14.5 C14.869375 15.325 15.42625 16.15 16 17 C15.34 17.33 14.68 17.66 14 18 C11.56982422 16.75244141 11.56982422 16.75244141 8.5546875 14.8515625 C7.47832031 14.17609375 6.40195313 13.500625 5.29296875 12.8046875 C4.73270996 12.44729492 4.17245117 12.08990234 3.59521484 11.72167969 C1.88020991 10.62832145 0.15773482 9.54763017 -1.56640625 8.46875 C-7.69829224 4.59675477 -7.69829224 4.59675477 -10 3 C-10 2.67 -10 2.34 -10 2 C-8.7090864 1.66376204 -7.41723903 1.33110751 -6.125 1 C-5.40570313 0.814375 -4.68640625 0.62875 -3.9453125 0.4375 C-2 0 -2 0 0 0 Z " fill="#A17AF0" transform="translate(133,240)"/>
<path d="M0 0 C0.99 0.33 1.98 0.66 3 1 C2.01 1.99 1.02 2.98 0 4 C0.66 4.0825 1.32 4.165 2 4.25 C5.29672812 5.07418203 7.93059502 6.3830476 10.9296875 7.9453125 C13.89220919 9.45452166 16.93172989 10.72155412 20 12 C19.67 12.99 19.34 13.98 19 15 C19.99 15.33 20.98 15.66 22 16 C22.33 16.99 22.66 17.98 23 19 C17.64794509 16.98359217 13.02898982 14.13603841 8.1875 11.125 C7.30384766 10.59519531 6.42019531 10.06539062 5.50976562 9.51953125 C4.67509766 9.00003906 3.84042969 8.48054688 2.98046875 7.9453125 C2.21629639 7.47625488 1.45212402 7.00719727 0.66479492 6.52392578 C0.1154126 6.02103027 -0.43396973 5.51813477 -1 5 C-1 1 -1 1 0 0 Z " fill="#A357E2" transform="translate(197,103)"/>
<path d="M0 0 C1.75471386 0.90761062 3.50359264 1.82650711 5.25 2.75 C6.22453125 3.26046875 7.1990625 3.7709375 8.203125 4.296875 C10.91493199 5.94819881 12.86796403 7.66491299 15 10 C14.39671875 9.7834375 13.7934375 9.566875 13.171875 9.34375 C12.37265625 9.0653125 11.5734375 8.786875 10.75 8.5 C9.96109375 8.2215625 9.1721875 7.943125 8.359375 7.65625 C5.76587262 6.82135139 5.76587262 6.82135139 2 7 C1.67 7.99 1.34 8.98 1 10 C0.41734375 9.78472656 -0.1653125 9.56945312 -0.765625 9.34765625 C-3.02188446 8.77110902 -3.02188446 8.77110902 -4.921875 9.99609375 C-5.52515625 10.47175781 -6.1284375 10.94742188 -6.75 11.4375 C-7.36359375 11.91058594 -7.9771875 12.38367188 -8.609375 12.87109375 C-9.29773437 13.42990234 -9.29773437 13.42990234 -10 14 C-8.43632643 10.47761953 -6.30504111 7.72876006 -3.875 4.75 C-3.15054688 3.85796875 -2.42609375 2.9659375 -1.6796875 2.046875 C-0.84824219 1.03367188 -0.84824219 1.03367188 0 0 Z " fill="#AE63E9" transform="translate(72,220)"/>
<path d="M0 0 C7.66283829 0.24326471 11.96857627 2.33741003 18 7 C17.01 7.495 17.01 7.495 16 8 C15.01 7.34 14.02 6.68 13 6 C8.85223727 5.71337567 8.85223727 5.71337567 5 7 C5 6.34 5 5.68 5 5 C4.01 5.495 4.01 5.495 3 6 C1.29636178 6.22622081 -0.41328701 6.40888473 -2.125 6.5625 C-3.03507812 6.64628906 -3.94515625 6.73007813 -4.8828125 6.81640625 C-5.93082031 6.90728516 -5.93082031 6.90728516 -7 7 C-6.12890625 5.04296875 -6.12890625 5.04296875 -5 3 C-2.9375 2.3125 -2.9375 2.3125 -1 2 C-0.67 1.67 -0.34 1.34 0 1 C0 0.67 0 0.34 0 0 Z " fill="#8F23F7" transform="translate(73,226)"/>
<path d="M0 0 C1.32 0.33 2.64 0.66 4 1 C4 1.66 4 2.32 4 3 C3.34 3 2.68 3 2 3 C2.33 4.32 2.66 5.64 3 7 C-2.75 12 -2.75 12 -5 12 C-5 13.32 -5 14.64 -5 16 C-5.66 16 -6.32 16 -7 16 C-7 16.66 -7 17.32 -7 18 C-9.375 18.625 -9.375 18.625 -12 19 C-12.66 18.34 -13.32 17.68 -14 17 C-12.35 16.34 -10.7 15.68 -9 15 C-9 13.35 -9 11.7 -9 10 C-8.443125 9.731875 -7.88625 9.46375 -7.3125 9.1875 C-6.549375 8.795625 -5.78625 8.40375 -5 8 C-4.0925 7.566875 -3.185 7.13375 -2.25 6.6875 C-1.5075 6.130625 -0.765 5.57375 0 5 C0.41780879 2.37305578 0.41780879 2.37305578 0 0 Z " fill="#9123FC" transform="translate(249,112)"/>
<path d="M0 0 C0.66 0.33 1.32 0.66 2 1 C-1.61522199 6.66384778 -1.61522199 6.66384778 -5.55859375 7.62109375 C-8.04869927 7.85067795 -10.49984363 7.99029065 -13 8 C-12.01 9.485 -12.01 9.485 -11 11 C-10.67 10.34 -10.34 9.68 -10 9 C-9.34 9.33 -8.68 9.66 -8 10 C-8.66 11.32 -9.32 12.64 -10 14 C-13.33333333 12.66666667 -16.66666667 11.33333333 -20 10 C-19.67 9.01 -19.34 8.02 -19 7 C-18.33613281 6.89042969 -17.67226562 6.78085938 -16.98828125 6.66796875 C-12.0503084 5.78129625 -8.16526853 4.94018955 -4 2 C-1.8125 0.75 -1.8125 0.75 0 0 Z " fill="#8E23E5" transform="translate(217,97)"/>
<path d="M0 0 C1.65 0.33 3.3 0.66 5 1 C2.82914543 6.69081334 -0.08999061 11.9104073 -3 17.25 C-3.81984375 18.77753906 -3.81984375 18.77753906 -4.65625 20.3359375 C-5.44515625 21.78613281 -5.44515625 21.78613281 -6.25 23.265625 C-6.72953125 24.15024414 -7.2090625 25.03486328 -7.703125 25.94628906 C-9 28 -9 28 -11 29 C-9.29734513 21.01061947 -9.29734513 21.01061947 -6 18 C-5.27802838 15.39388923 -5.27802838 15.39388923 -5 13 C-4.34 13 -3.68 13 -3 13 C-3 11.35 -3 9.7 -3 8 C-2.34 8 -1.68 8 -1 8 C-1 7.01 -1 6.02 -1 5 C-0.34 5 0.32 5 1 5 C0.67 3.35 0.34 1.7 0 0 Z " fill="#A786E9" transform="translate(280,239)"/>
<path d="M0 0 C-1.3489311 4.51451314 -3.16618294 8.32277281 -5.5625 12.375 C-6.18253906 13.43460938 -6.80257813 14.49421875 -7.44140625 15.5859375 C-7.95574219 16.38257813 -8.47007812 17.17921875 -9 18 C-9.33 18 -9.66 18 -10 18 C-10.06058594 17.38511719 -10.12117188 16.77023438 -10.18359375 16.13671875 C-10.26738281 15.32847656 -10.35117187 14.52023438 -10.4375 13.6875 C-10.51871094 12.88699219 -10.59992188 12.08648437 -10.68359375 11.26171875 C-10.95265693 8.83912821 -10.95265693 8.83912821 -12 6 C-11.34 5.67 -10.68 5.34 -10 5 C-9.67 5.66 -9.34 6.32 -9 7 C-8.01 7.33 -7.02 7.66 -6 8 C-5.67 6.68 -5.34 5.36 -5 4 C-5.66 4 -6.32 4 -7 4 C-6.6875 2.0625 -6.6875 2.0625 -6 0 C-3 -1 -3 -1 0 0 Z " fill="#A35EEC" transform="translate(307,202)"/>
<path d="M0 0 C-0.55011454 3.85080179 -2.02519926 5.54845411 -5 8 C-8.3828125 9.1171875 -8.3828125 9.1171875 -12.125 9.875 C-13.36507813 10.14054687 -14.60515625 10.40609375 -15.8828125 10.6796875 C-16.91148437 10.78539063 -17.94015625 10.89109375 -19 11 C-19.66 10.34 -20.32 9.68 -21 9 C-17.87797994 7.49373883 -14.75191601 5.99606757 -11.625 4.5 C-10.73554688 4.07074219 -9.84609375 3.64148437 -8.9296875 3.19921875 C-8.07890625 2.79316406 -7.228125 2.38710938 -6.3515625 1.96875 C-5.56604004 1.59169922 -4.78051758 1.21464844 -3.97119141 0.82617188 C-2 0 -2 0 0 0 Z " fill="#968DEC" transform="translate(300,56)"/>
<path d="M0 0 C0.99 0.33 1.98 0.66 3 1 C2 4 2 4 -0.74389648 5.64160156 C-1.94759928 6.23560298 -3.15713338 6.81787869 -4.37109375 7.390625 C-5.00862076 7.69949646 -5.64614777 8.00836792 -6.30299377 8.32659912 C-7.65152632 8.9769102 -9.0025126 9.62215374 -10.35571289 10.26269531 C-12.43213859 11.24745731 -14.49850716 12.25128186 -16.56445312 13.2578125 C-17.87444411 13.88657614 -19.18497374 14.51421904 -20.49609375 15.140625 C-21.11697372 15.44260803 -21.7378537 15.74459106 -22.37754822 16.0557251 C-23.89097415 16.76543106 -25.4433075 17.39102623 -27 18 C-27.66 17.67 -28.32 17.34 -29 17 C-28.01 16.67 -27.02 16.34 -26 16 C-26 15.34 -26 14.68 -26 14 C-24.68 14 -23.36 14 -22 14 C-22 13.01 -22 12.02 -22 11 C-20.02 11 -18.04 11 -16 11 C-16 10.01 -16 9.02 -16 8 C-13.54285453 7.16301614 -11.08441143 6.33027576 -8.625 5.5 C-7.92632812 5.26152344 -7.22765625 5.02304688 -6.5078125 4.77734375 C-1.2265625 3 -1.2265625 3 1 3 C0.67 2.01 0.34 1.02 0 0 Z " fill="#C18FE8" transform="translate(114,247)"/>
<path d="M0 0 C-0.4125 0.391875 -0.825 0.78375 -1.25 1.1875 C-3.11864955 3.05023791 -3.11864955 3.05023791 -4.9375 5.5625 C-6.90890121 7.89233779 -8.20494288 8.90194184 -11 10 C-11.33 9.67 -11.66 9.34 -12 9 C-13.85772162 9.08984301 -15.71247985 9.24611861 -17.5625 9.4375 C-18.57441406 9.53933594 -19.58632813 9.64117187 -20.62890625 9.74609375 C-21.80259766 9.87177734 -21.80259766 9.87177734 -23 10 C-19.19757006 6.78725171 -14.84513078 4.85006144 -10.375 2.75 C-9.59898437 2.37359375 -8.82296875 1.9971875 -8.0234375 1.609375 C-7.2809375 1.25875 -6.5384375 0.908125 -5.7734375 0.546875 C-5.09716309 0.22557617 -4.42088867 -0.09572266 -3.72412109 -0.42675781 C-2 -1 -2 -1 0 0 Z " fill="#9B80EF" transform="translate(279,67)"/>
<path d="M0 0 C1.34065112 4.28682365 0.26276384 6.60301502 -1.4375 10.75 C-1.91058594 11.92046875 -2.38367188 13.0909375 -2.87109375 14.296875 C-3.24363281 15.18890625 -3.61617187 16.0809375 -4 17 C-4.99 17 -5.98 17 -7 17 C-7 17.99 -7 18.98 -7 20 C-7.66 20 -8.32 20 -9 20 C-9 20.66 -9 21.32 -9 22 C-9.99 22.33 -10.98 22.66 -12 23 C-10.2010497 17.92365174 -7.50973545 13.36286389 -4.875 8.6875 C-4.40707031 7.85154297 -3.93914063 7.01558594 -3.45703125 6.15429688 C-2.3073741 4.10133767 -1.15496198 2.04997798 0 0 Z " fill="#9BA5ED" transform="translate(67,41)"/>
<path d="M0 0 C1.01771484 0.00902344 2.03542969 0.01804688 3.08398438 0.02734375 C5.57707156 0.05075302 8.06965859 0.083543 10.5625 0.125 C10.2325 1.115 9.9025 2.105 9.5625 3.125 C8.5725 3.125 7.5825 3.125 6.5625 3.125 C4.89150023 3.43588368 3.22378463 3.76580332 1.5625 4.125 C1.5625 3.135 1.5625 2.145 1.5625 1.125 C0.2425 1.125 -1.0775 1.125 -2.4375 1.125 C-2.4375 1.785 -2.4375 2.445 -2.4375 3.125 C-3.984375 3.0940625 -3.984375 3.0940625 -5.5625 3.0625 C-9.35472504 3.01191568 -9.35472504 3.01191568 -12.6875 3.75 C-15.4375 4.125 -15.4375 4.125 -18.4375 2.125 C-12.23465256 -0.08471003 -6.54148302 -0.11065619 0 0 Z " fill="#931BF2" transform="translate(301.4375,186.875)"/>
<path d="M0 0 C0.66 3.3 1.32 6.6 2 10 C-2.72373854 8.37621488 -6.94181834 5.89006982 -11 3 C-11 2.67 -11 2.34 -11 2 C-7.12315913 0.80712589 -4.08378077 0 0 0 Z " fill="#9752EF" transform="translate(95,216)"/>
<path d="M0 0 C2.64 0 5.28 0 8 0 C8.268125 0.804375 8.53625 1.60875 8.8125 2.4375 C9.204375 3.283125 9.59625 4.12875 10 5 C10.99 5.33 11.98 5.66 13 6 C13 5.34 13 4.68 13 4 C13.99 4.33 14.98 4.66 16 5 C16 6.98 16 8.96 16 11 C12.37628852 9.63784946 9.08615026 8.02523511 5.75 6.0625 C4.87859375 5.55847656 4.0071875 5.05445313 3.109375 4.53515625 C1 3 1 3 0 0 Z " fill="#A56CDA" transform="translate(50,196)"/>
<path d="M0 0 C0 0.33 0 0.66 0 1 C-1.98 1 -3.96 1 -6 1 C-6 1.99 -6 2.98 -6 4 C-7.32 4 -8.64 4 -10 4 C-10 4.66 -10 5.32 -10 6 C-13.4352048 8.29013653 -14.985331 8.17842973 -19 8 C-17.68 6.68 -16.36 5.36 -15 4 C-15.66 3.67 -16.32 3.34 -17 3 C-17 2.34 -17 1.68 -17 1 C-14.66666667 1 -12.33333333 1 -10 1 C-6.1496895 -1.56687367 -4.41430237 -0.83288724 0 0 Z " fill="#8940EB" transform="translate(98,257)"/>
<path d="M0 0 C0.66 0.33 1.32 0.66 2 1 C-0.58674403 3.58674403 -2.71418504 3.68636719 -6.22265625 4.33984375 C-6.80917969 4.55769531 -7.39570313 4.77554688 -8 5 C-8.33 5.99 -8.66 6.98 -9 8 C-14.51204215 10.4607331 -20.09194399 11.83753528 -26 13 C-21.39644047 9.31875873 -16.21355816 7.1697818 -10.875 4.75 C-9.86050781 4.27820313 -8.84601563 3.80640625 -7.80078125 3.3203125 C-6.83269531 2.87945312 -5.86460937 2.43859375 -4.8671875 1.984375 C-3.53856689 1.37674316 -3.53856689 1.37674316 -2.18310547 0.75683594 C-1.10246826 0.38220215 -1.10246826 0.38220215 0 0 Z " fill="#CEA2EF" transform="translate(236,85)"/>
<path d="M0 0 C0.66 0 1.32 0 2 0 C2.33 1.65 2.66 3.3 3 5 C4.175625 5.2165625 4.175625 5.2165625 5.375 5.4375 C8 6 8 6 10 7 C10.33 6.34 10.66 5.68 11 5 C14 9.75 14 9.75 14 12 C14.99 12.33 15.98 12.66 17 13 C16.01 13.495 16.01 13.495 15 14 C13.30419922 13.19555664 13.30419922 13.19555664 11.3046875 11.91015625 C10.58925781 11.45576172 9.87382812 11.00136719 9.13671875 10.53320312 C8.39035156 10.04787109 7.64398438 9.56253906 6.875 9.0625 C6.12089844 8.58103516 5.36679688 8.09957031 4.58984375 7.60351562 C2.72185575 6.40942203 0.85897934 5.20805232 -1 4 C-0.67 2.68 -0.34 1.36 0 0 Z " fill="#AAA7F0" transform="translate(181,274)"/>
<path d="M0 0 C4.10811428 1.44992269 7.46855666 3.45407573 11 6 C11 6.33 11 6.66 11 7 C7.70388848 7.15330751 5.46374324 7.2149054 2.4375 5.8125 C1.633125 5.544375 0.82875 5.27625 0 5 C-2.69519712 6.30027975 -2.69519712 6.30027975 -5 8 C-5.66 8 -6.32 8 -7 8 C-7 7.34 -7 6.68 -7 6 C-6.34 6 -5.68 6 -5 6 C-5 5.34 -5 4.68 -5 4 C-4.34 3.34 -3.68 2.68 -3 2 C-1.66666667 2 -0.33333333 2 1 2 C0.67 1.34 0.34 0.68 0 0 Z " fill="#9020F1" transform="translate(87,230)"/>
<path d="M0 0 C-0.66 1.32 -1.32 2.64 -2 4 C-7.94 3.01 -7.94 3.01 -14 2 C-14.66 3.32 -15.32 4.64 -16 6 C-16.99 6.495 -16.99 6.495 -18 7 C-18 6.34 -18 5.68 -18 5 C-18.66 5 -19.32 5 -20 5 C-20 4.34 -20 3.68 -20 3 C-5.61165049 -2.80582524 -5.61165049 -2.80582524 0 0 Z " fill="#8153E5" transform="translate(272,76)"/>
<path d="M0 0 C10.72867997 -0.10947633 21.3051534 0.03711992 32 1 C32 1.33 32 1.66 32 2 C27.81293153 2.19810076 23.62534345 2.38158516 19.4375 2.5625 C18.25607422 2.61857422 17.07464844 2.67464844 15.85742188 2.73242188 C10.08819538 2.97482635 4.67579117 3.12515684 -1 2 C-0.67 1.34 -0.34 0.68 0 0 Z " fill="#8A2FD7" transform="translate(134,161)"/>
<path d="M0 0 C0.99 0 1.98 0 3 0 C3 0.66 3 1.32 3 2 C5.31 2.66 7.62 3.32 10 4 C10 4.99 10 5.98 10 7 C10.66 7 11.32 7 12 7 C12.33 8.32 12.66 9.64 13 11 C9.67865043 9.85828608 6.70347797 8.34101632 3.6875 6.5625 C2.99011719 6.15128906 2.29273437 5.74007812 1.57421875 5.31640625 C1.05472656 4.88199219 0.53523438 4.44757813 0 4 C0 2.66666667 0 1.33333333 0 0 Z " fill="#AE84EE" transform="translate(102,226)"/>
<path d="M0 0 C1.79258558 0.08693141 3.58415144 0.19510504 5.375 0.3125 C6.87160156 0.39951172 6.87160156 0.39951172 8.3984375 0.48828125 C9.25695312 0.65714844 10.11546875 0.82601562 11 1 C13 4 13 4 12.625 6.1875 C12.41875 6.785625 12.2125 7.38375 12 8 C12 7.34 12 6.68 12 6 C11.1028125 6.309375 11.1028125 6.309375 10.1875 6.625 C8 7 8 7 5 5 C5 4.34 5 3.68 5 3 C3.35 2.67 1.7 2.34 0 2 C0 1.34 0 0.68 0 0 Z " fill="#8C31F3" transform="translate(74,208)"/>
<path d="M0 0 C2.9719385 1.12451727 5.33440687 2.22293791 8 4 C8 4.99 8 5.98 8 7 C-0.58 7 -9.16 7 -18 7 C-18 6.67 -18 6.34 -18 6 C-7.605 5.505 -7.605 5.505 3 5 C3 4.01 3 3.02 3 2 C2.01 1.67 1.02 1.34 0 1 C0 0.67 0 0.34 0 0 Z " fill="#E7BBFC" transform="translate(254,153)"/>
<path d="M0 0 C1.21610222 4.40837056 1.1998454 6.9669501 -1 11 C-1.4021875 12.0828125 -1.4021875 12.0828125 -1.8125 13.1875 C-3 15 -3 15 -5.625 15.75 C-6.40875 15.8325 -7.1925 15.915 -8 16 C-6.42986223 10.03347646 -3.24970218 5.17090975 0 0 Z " fill="#9C82EC" transform="translate(42,85)"/>
<path d="M0 0 C0.33 0.66 0.66 1.32 1 2 C-0.07983398 4.33837891 -0.07983398 4.33837891 -1.74609375 7.2265625 C-2.33583984 8.2578125 -2.92558594 9.2890625 -3.53320312 10.3515625 C-4.16162109 11.43179687 -4.79003906 12.51203125 -5.4375 13.625 C-6.06205078 14.71296875 -6.68660156 15.8009375 -7.33007812 16.921875 C-8.87961699 19.61878233 -10.4365104 22.31116406 -12 25 C-13.03864166 21.88407501 -13.09036928 20.9737344 -12 18 C-11.34 17.67 -10.68 17.34 -10 17 C-10 15.68 -10 14.36 -10 13 C-9.01 12.67 -8.02 12.34 -7 12 C-6.67 10.02 -6.34 8.04 -6 6 C-5.01 5.67 -4.02 5.34 -3 5 C-1.30117552 2.50240018 -1.30117552 2.50240018 0 0 Z " fill="#C2BFF2" transform="translate(267,270)"/>
<path d="M0 0 C0 0.33 0 0.66 0 1 C-0.64066406 1.06058594 -1.28132813 1.12117187 -1.94140625 1.18359375 C-3.23884766 1.30927734 -3.23884766 1.30927734 -4.5625 1.4375 C-5.40941406 1.51871094 -6.25632812 1.59992188 -7.12890625 1.68359375 C-9.14705067 1.9060015 -11.15738292 2.20626626 -13.15625 2.5625 C-18.14217439 3.13000359 -22.9386522 2.85976573 -27.9375 2.5625 C-28.90751953 2.51029297 -29.87753906 2.45808594 -30.87695312 2.40429688 C-33.25170788 2.27561558 -35.62593229 2.14070204 -38 2 C-38 1.67 -38 1.34 -38 1 C-25.32987825 -0.12089545 -12.71132024 -0.10768094 0 0 Z " fill="#8E23E9" transform="translate(64,165)"/>
<path d="M0 0 C1.2065625 0.0309375 1.2065625 0.0309375 2.4375 0.0625 C1.4475 0.5575 1.4475 0.5575 0.4375 1.0625 C0.09596063 2.72750443 -0.23699498 4.39428677 -0.5625 6.0625 C-1.2225 6.7225 -1.8825 7.3825 -2.5625 8.0625 C-3.2050235 10.13124034 -3.2050235 10.13124034 -3.5625 12.0625 C-4.8825 12.3925 -6.2025 12.7225 -7.5625 13.0625 C-7.5625 11.0825 -7.5625 9.1025 -7.5625 7.0625 C-6.5725 7.0625 -5.5825 7.0625 -4.5625 7.0625 C-4.418125 6.093125 -4.27375 5.12375 -4.125 4.125 C-3.3825 0.0825 -3.3825 0.0825 0 0 Z " fill="#8E28F1" transform="translate(11.5625,145.9375)"/>
<path d="M0 0 C1.39943663 2.79887327 0.54753576 4.12138828 -0.375 7.0625 C-0.65085937 7.96097656 -0.92671875 8.85945313 -1.2109375 9.78515625 C-2 12 -2 12 -3 13 C-3 13.99 -3 14.98 -3 16 C-4.98 16.33 -6.96 16.66 -9 17 C-7.51481201 12.95698825 -5.57122002 9.38853744 -3.375 5.6875 C-2.74335938 4.61886719 -2.11171875 3.55023438 -1.4609375 2.44921875 C-0.97882812 1.64097656 -0.49671875 0.83273438 0 0 Z " fill="#B290ED" transform="translate(33,101)"/>
<path d="M0 0 C0.33 0.66 0.66 1.32 1 2 C0.06421005 4.35981813 -0.93347808 6.69631264 -2 9 C-2.66 9 -3.32 9 -4 9 C-4.04125 9.61875 -4.0825 10.2375 -4.125 10.875 C-4.41375 11.57625 -4.7025 12.2775 -5 13 C-8.0625 14.25 -8.0625 14.25 -11 15 C-9.3718356 11.24269753 -6.98598083 8.383177 -4.375 5.25 C-3.55773438 4.26515625 -2.74046875 3.2803125 -1.8984375 2.265625 C-1.27195312 1.51796875 -0.64546875 0.7703125 0 0 Z " fill="#AD97EB" transform="translate(49,249)"/>
<path d="M0 0 C2.625 0.375 2.625 0.375 5 1 C5.33 1.99 5.66 2.98 6 4 C4.8125 6.1875 4.8125 6.1875 3 8 C1.68 8 0.36 8 -1 8 C-1 8.66 -1 9.32 -1 10 C-1.66 10 -2.32 10 -3 10 C-3 9.01 -3 8.02 -3 7 C-2.34 6.67 -1.68 6.34 -1 6 C-0.67 5.01 -0.34 4.02 0 3 C-0.66 2.67 -1.32 2.34 -2 2 C-1.34 1.34 -0.68 0.68 0 0 Z " fill="#8D26F8" transform="translate(99,247)"/>
<path d="M0 0 C-1.47721422 3.45201639 -3.43794001 5.64961936 -6.125 8.25 C-6.84945313 8.95640625 -7.57390625 9.6628125 -8.3203125 10.390625 C-8.87460937 10.92171875 -9.42890625 11.4528125 -10 12 C-10.33 10.68 -10.66 9.36 -11 8 C-10.01 8 -9.02 8 -8 8 C-8 7.01 -8 6.02 -8 5 C-8.66 4.67 -9.32 4.34 -10 4 C-8.71086513 3.32845067 -7.41859796 2.66291141 -6.125 2 C-5.40570313 1.62875 -4.68640625 1.2575 -3.9453125 0.875 C-2 0 -2 0 0 0 Z " fill="#B5BEE6" transform="translate(330,42)"/>
<path d="M0 0 C0.99773437 0.02320313 1.99546875 0.04640625 3.0234375 0.0703125 C4.52777344 0.09738281 4.52777344 0.09738281 6.0625 0.125 C6.83335937 0.14820313 7.60421875 0.17140625 8.3984375 0.1953125 C6.91913557 4.16010822 5.16196693 6.97119483 2.3984375 10.1953125 C2.7284375 7.5553125 3.0584375 4.9153125 3.3984375 2.1953125 C0.7584375 2.1953125 -1.8815625 2.1953125 -4.6015625 2.1953125 C-2.6015625 0.1953125 -2.6015625 0.1953125 0 0 Z " fill="#A664D7" transform="translate(308.6015625,184.8046875)"/>
<path d="M0 0 C2 0 4 0 6 0 C6.99 2.97 7.98 5.94 9 9 C5.625 8.4375 5.625 8.4375 2 7 C0.5625 3.375 0.5625 3.375 0 0 Z " fill="#786EF7" transform="translate(182,272)"/>
<path d="M0 0 C7.59 0 15.18 0 23 0 C22.67 0.99 22.34 1.98 22 3 C19.98177083 2.67447917 17.96354167 2.34895833 15.9453125 2.0234375 C15.30335938 2.01570312 14.66140625 2.00796875 14 2 C13.34 2.66 12.68 3.32 12 4 C12 3.34 12 2.68 12 2 C8.37 2 4.74 2 1 2 C0.67 1.34 0.34 0.68 0 0 Z " fill="#8F22F0" transform="translate(130,194)"/>
<path d="M0 0 C4.27186525 1.52853935 7.99326863 3.71509481 11.8125 6.125 C12.40998047 6.49753906 13.00746094 6.87007813 13.62304688 7.25390625 C15.08426251 8.1657048 16.54244585 9.08235976 18 10 C14.69564916 11.12377697 12.9493138 10.89554742 9.75 9.5625 C9.04359375 9.27503906 8.3371875 8.98757812 7.609375 8.69140625 C7.07828125 8.46324219 6.5471875 8.23507813 6 8 C6 6.68 6 5.36 6 4 C4.68 4 3.36 4 2 4 C1.34 2.68 0.68 1.36 0 0 Z " fill="#BB94E8" transform="translate(200,120)"/>
<path d="M0 0 C3.35842956 1.58319274 6.47860163 3.46735412 9.61328125 5.4453125 C10.21076172 5.81785156 10.80824219 6.19039063 11.42382812 6.57421875 C12.88504376 7.4860173 14.3432271 8.40267226 15.80078125 9.3203125 C12.84116046 10.80012289 10.73850458 9.8790492 7.62890625 9.0625 C5.80078125 8.3203125 5.80078125 8.3203125 4.55078125 6.2578125 C4.30328125 5.6184375 4.05578125 4.9790625 3.80078125 4.3203125 C1.75077254 3.51502361 1.75077254 3.51502361 -0.19921875 3.3203125 C-0.19921875 2.6603125 -0.19921875 2.0003125 -0.19921875 1.3203125 C-1.51921875 0.9903125 -2.83921875 0.6603125 -4.19921875 0.3203125 C-2.19921875 -0.6796875 -2.19921875 -0.6796875 0 0 Z " fill="#B29CEC" transform="translate(161.19921875,95.6796875)"/>
<path d="M0 0 C-2.66666667 1.33333333 -5.33333333 2.66666667 -8 4 C-8.6909375 4.3815625 -9.381875 4.763125 -10.09375 5.15625 C-12.68112336 6.30148083 -14.33284253 5.74087707 -17 5 C-12.52983658 0.91854644 -5.91668869 -1.99015892 0 0 Z " fill="#A75ADF" transform="translate(217,98)"/>
<path d="M0 0 C1.04668851 3.40173767 1.29579163 6.45050049 1 10 C-0.5 12.375 -0.5 12.375 -2 14 C-4 13 -4 13 -5 10 C-4.2578125 7.7734375 -4.2578125 7.7734375 -3.125 5.375 C-2.75632813 4.57835938 -2.38765625 3.78171875 -2.0078125 2.9609375 C-1 1 -1 1 0 0 Z " fill="#7D66F2" transform="translate(46,81)"/>
<path d="M0 0 C4.53536249 1.58694328 8.31496003 3.9564827 12.3125 6.5625 C12.95767578 6.97435547 13.60285156 7.38621094 14.26757812 7.81054688 C15.86504831 8.84340855 17.43534098 9.91807746 19 11 C19 11.33 19 11.66 19 12 C17.35 12 15.7 12 14 12 C14 11.01 14 10.02 14 9 C12.68 9 11.36 9 10 9 C10 8.34 10 7.68 10 7 C8.68 7 7.36 7 6 7 C6 6.01 6 5.02 6 4 C4.68 4 3.36 4 2 4 C1.34 2.68 0.68 1.36 0 0 Z " fill="#B2B5EB" transform="translate(102,60)"/>
<path d="M0 0 C0.66 0.33 1.32 0.66 2 1 C1.25 6.75 1.25 6.75 -1 9 C-1.71408334 10.98356483 -2.38617742 12.98315437 -3 15 C-3.8723412 12.00519083 -4.10829766 9.36424089 -4.0625 6.25 C-4.05347656 5.45078125 -4.04445313 4.6515625 -4.03515625 3.828125 C-4.02355469 3.22484375 -4.01195312 2.6215625 -4 2 C-2.125 0.9375 -2.125 0.9375 0 0 Z " fill="#7D61F8" transform="translate(268,257)"/>
<path d="M0 0 C0 0.99 0 1.98 0 3 C0.33 3.99 0.66 4.98 1 6 C-3.46133727 4.86279638 -7.20441387 3.64540851 -11 1 C-11 0.67 -11 0.34 -11 0 C-7.01803543 -1.05404945 -4.01804691 -0.84098656 0 0 Z " fill="#9C85EE" transform="translate(160,258)"/>
<path d="M0 0 C0 3.69823514 -0.35538692 5.64498932 -2 9 C-4.83686331 11.2871238 -7.85120346 13.17292053 -11 15 C-9.3718356 11.24269753 -6.98598083 8.383177 -4.375 5.25 C-3.55773438 4.26515625 -2.74046875 3.2803125 -1.8984375 2.265625 C-1.27195312 1.51796875 -0.64546875 0.7703125 0 0 Z " fill="#B88CE9" transform="translate(61,234)"/>
<path d="M0 0 C3.69876091 1.37287342 6.9514476 3.06355453 10.3125 5.125 C11.19550781 5.66382813 12.07851562 6.20265625 12.98828125 6.7578125 C13.65214844 7.16773438 14.31601563 7.57765625 15 8 C14.01 8.66 13.02 9.32 12 10 C11.67 9.01 11.34 8.02 11 7 C9.9171875 7.061875 9.9171875 7.061875 8.8125 7.125 C5.67562953 6.98558353 3.71688867 6.58485173 1 5 C0.1875 2.375 0.1875 2.375 0 0 Z " fill="#A2AFED" transform="translate(87,51)"/>
<path d="M0 0 C3.89301165 -0.37076301 5.80577827 -0.10260771 9.3125 1.75 C12 4 12 4 12.875 6.25 C12.936875 7.11625 12.936875 7.11625 13 8 C8.27626146 6.37621488 4.05818166 3.89006982 0 1 C0 0.67 0 0.34 0 0 Z " fill="#ABB6F1" transform="translate(224,304)"/>
<path d="M0 0 C4.97360357 1.27231719 7.67296922 3.08584614 11 7 C11 7.66 11 8.32 11 9 C6.22390502 7.35821735 2.20617096 4.73453298 -2 2 C-1.34 1.34 -0.68 0.68 0 0 Z " fill="#ACB0EF" transform="translate(200,287)"/>
<path d="M0 0 C4.28577219 -0.36539443 6.34492062 0.51576402 9.8125 3 C10.60269531 3.556875 11.39289063 4.11375 12.20703125 4.6875 C12.79871094 5.120625 13.39039062 5.55375 14 6 C13.01 6.495 13.01 6.495 12 7 C11.01 6.34 10.02 5.68 9 5 C4.85223727 4.71337567 4.85223727 4.71337567 1 6 C0 3 0 3 0 0 Z " fill="#8A27DE" transform="translate(77,227)"/>
<path d="M0 0 C3.95906817 1.43308135 7.28718181 3.33141949 10.8125 5.625 C11.78832031 6.25664062 12.76414063 6.88828125 13.76953125 7.5390625 C14.50558594 8.02117187 15.24164063 8.50328125 16 9 C14.02 9.99 14.02 9.99 12 11 C12 10.34 12 9.68 12 9 C11.34 9 10.68 9 10 9 C10 8.34 10 7.68 10 7 C8.63875 6.938125 8.63875 6.938125 7.25 6.875 C4 6 4 6 1.625 2.9375 C1.08875 1.968125 0.5525 0.99875 0 0 Z " fill="#BC91E9" transform="translate(218,131)"/>
<path d="M0 0 C1.6065676 0.25620684 3.2102483 0.53055871 4.8125 0.8125 C6.15248047 1.03873047 6.15248047 1.03873047 7.51953125 1.26953125 C10.18321256 2.05395393 11.25690322 2.88627799 13 5 C9.92677456 5.91058531 7.19902639 6.08886184 4 6 C3.67 5.01 3.34 4.02 3 3 C2.01 3 1.02 3 0 3 C0 2.01 0 1.02 0 0 Z " fill="#946AEE" transform="translate(169,104)"/>
<path d="M0 0 C0.66 0.33 1.32 0.66 2 1 C-0.73056995 5.22797927 -0.73056995 5.22797927 -3 7 C-6.06437568 7.52268615 -8.92228147 7.36208453 -12 7 C-8.18660874 3.64883798 -4.7349034 1.6974182 0 0 Z " fill="#9223F8" transform="translate(217,97)"/>
<path d="M0 0 C-2.26607052 1.03275341 -4.53681939 2.05133551 -6.8125 3.0625 C-7.77639648 3.50432617 -7.77639648 3.50432617 -8.75976562 3.95507812 C-13.66015625 6.11328125 -13.66015625 6.11328125 -17 5 C-16.34 5 -15.68 5 -15 5 C-15 4.01 -15 3.02 -15 2 C-13.06524329 1.46906676 -11.12706845 0.95057683 -9.1875 0.4375 C-8.10855469 0.14746094 -7.02960937 -0.14257812 -5.91796875 -0.44140625 C-3 -1 -3 -1 0 0 Z " fill="#B8B4F1" transform="translate(56,279)"/>
<path d="M0 0 C0.99 0 1.98 0 3 0 C1.42986223 5.96652354 -1.75029782 10.82909025 -5 16 C-6 14 -6 14 -5.51171875 12.08984375 C-5.23972656 11.37957031 -4.96773438 10.66929687 -4.6875 9.9375 C-4.29111328 8.86822266 -4.29111328 8.86822266 -3.88671875 7.77734375 C-3 6 -3 6 -1 5 C-0.34444881 2.47266765 -0.34444881 2.47266765 0 0 Z " fill="#B7AAEB" transform="translate(275,252)"/>
<path d="M0 0 C2.8125 0.1875 2.8125 0.1875 6 1 C7.6875 3.5 7.6875 3.5 9 6 C9.99 6.33 10.98 6.66 12 7 C12 7.66 12 8.32 12 9 C10.35 8.67 8.7 8.34 7 8 C7 7.34 7 6.68 7 6 C6.01 5.67 5.02 5.34 4 5 C4 4.34 4 3.68 4 3 C2.35 3 0.7 3 -1 3 C-0.67 2.01 -0.34 1.02 0 0 Z " fill="#7F5CE8" transform="translate(141,249)"/>
<path d="M0 0 C0.33 0.66 0.66 1.32 1 2 C0.37943989 3.68437744 -0.29289322 5.35008418 -1 7 C-1.103125 7.680625 -1.20625 8.36125 -1.3125 9.0625 C-2.35714769 12.00650712 -4.52359517 13.22206833 -7 15 C-7.33 14.34 -7.66 13.68 -8 13 C-6.75506252 10.71025684 -5.47358472 8.55809966 -4.0625 6.375 C-3.67642578 5.76398438 -3.29035156 5.15296875 -2.89257812 4.5234375 C-1.93553674 3.0110758 -0.96867189 1.50493883 0 0 Z " fill="#C39AEC" transform="translate(19,125)"/>
<path d="M0 0 C5.28497409 -0.44041451 5.28497409 -0.44041451 8 0 C10.5 2.5 10.5 2.5 12 5 C11.67 5.66 11.34 6.32 11 7 C6.89188572 5.55007731 3.53144334 3.54592427 0 1 C0 0.67 0 0.34 0 0 Z " fill="#A245E6" transform="translate(220,122)"/>
<path d="M0 0 C0.99 0.33 1.98 0.66 3 1 C2.01 1.99 1.02 2.98 0 4 C0.721875 4.061875 1.44375 4.12375 2.1875 4.1875 C5.84657625 5.24456647 7.49211602 7.20550071 10 10 C6.36804504 10 5.25286089 9.04546845 2.3125 7 C1.50425781 6.443125 0.69601563 5.88625 -0.13671875 5.3125 C-0.75160156 4.879375 -1.36648437 4.44625 -2 4 C-1.34 2.68 -0.68 1.36 0 0 Z " fill="#C993E6" transform="translate(197,103)"/>
<path d="M0 0 C7.10993658 0.2410148 7.10993658 0.2410148 9.64453125 2.40234375 C11 4.0625 11 4.0625 13 7 C12.01 7.495 12.01 7.495 11 8 C8.3984375 6.6015625 8.3984375 6.6015625 5.375 4.625 C4.37210937 3.97789062 3.36921875 3.33078125 2.3359375 2.6640625 C1.56507812 2.11492187 0.79421875 1.56578125 0 1 C0 0.67 0 0.34 0 0 Z " fill="#B98AE9" transform="translate(71,210)"/>
<path d="M0 0 C1.32 0.33 2.64 0.66 4 1 C4 1.66 4 2.32 4 3 C3.34 3 2.68 3 2 3 C2.33 4.32 2.66 5.64 3 7 C1.35 8.32 -0.3 9.64 -2 11 C-2.99 10.01 -3.98 9.02 -5 8 C-4.175 7.608125 -3.35 7.21625 -2.5 6.8125 C-1.675 6.214375 -0.85 5.61625 0 5 C0.41780879 2.37305578 0.41780879 2.37305578 0 0 Z " fill="#8C2BF3" transform="translate(249,112)"/>
<path d="M0 0 C0.99 0.33 1.98 0.66 3 1 C3 2.32 3 3.64 3 5 C2.34 5 1.68 5 1 5 C1 5.66 1 6.32 1 7 C-1.5 8.625 -1.5 8.625 -4 10 C-4 8 -4 6 -4 4 C-3.01 3.67 -2.02 3.34 -1 3 C-0.67 2.01 -0.34 1.02 0 0 Z " fill="#9C89E9" transform="translate(290,77)"/>
<path d="M0 0 C1.29567565 2.5913513 1.34250494 4.12295849 1 7 C-1.31425982 9.81017264 -4.04607787 11.89005562 -7 14 C-5.23570801 9.02790438 -2.6060834 4.56561939 0 0 Z " fill="#B4ACF0" transform="translate(50,71)"/>
<path d="M0 0 C1.65 0.33 3.3 0.66 5 1 C5.33 1.99 5.66 2.98 6 4 C4.68 4.99 3.36 5.98 2 7 C1.01 6.01 0.02 5.02 -1 4 C-1.33 4.66 -1.66 5.32 -2 6 C-2.33 5.01 -2.66 4.02 -3 3 C-2.01 2.67 -1.02 2.34 0 2 C0 1.34 0 0.68 0 0 Z " fill="#8A74F3" transform="translate(291,73)"/>
<path d="M0 0 C0 0.99 0 1.98 0 3 C-0.66 3 -1.32 3 -2 3 C-2 3.66 -2 4.32 -2 5 C-4.31 5.33 -6.62 5.66 -9 6 C-8.34 5.67 -7.68 5.34 -7 5 C-6.835 4.175 -6.67 3.35 -6.5 2.5 C-6.335 1.675 -6.17 0.85 -6 0 C-3.50907189 -1.24546405 -2.58919267 -0.7767578 0 0 Z " fill="#7D66F0" transform="translate(55,274)"/>
<path d="M0 0 C3.465 1.98 3.465 1.98 7 4 C3 5 3 5 1.0625 5.375 C-1.57851402 6.17530728 -3.68361656 7.52008836 -6 9 C-4.47291037 5.56404834 -2.40072955 2.88087546 0 0 Z " fill="#CA99E8" transform="translate(72,220)"/>
<path d="M0 0 C0 4 0 4 -1 7 C-2.98 6.34 -4.96 5.68 -7 5 C-6.01 4.67 -5.02 4.34 -4 4 C-4 3.34 -4 2.68 -4 2 C-4.66 1.34 -5.32 0.68 -6 0 C-3.50907189 -1.24546405 -2.58919267 -0.7767578 0 0 Z " fill="#825DF4" transform="translate(286,81)"/>
<path d="M0 0 C2.475 0.495 2.475 0.495 5 1 C5 1.66 5 2.32 5 3 C6.65 3.33 8.3 3.66 10 4 C9.67 5.32 9.34 6.64 9 8 C6.03 7.505 6.03 7.505 3 7 C3.66 6.34 4.32 5.68 5 5 C4.01 4.34 3.02 3.68 2 3 C2 2.34 2 1.68 2 1 C1.34 0.67 0.68 0.34 0 0 Z " fill="#7486F2" transform="translate(78,48)"/>
<path d="M0 0 C-0.8125 2.9375 -0.8125 2.9375 -2 6 C-2.99 6.33 -3.98 6.66 -5 7 C-5.66666667 5 -6.33333333 3 -7 1 C-3.375 -1.125 -3.375 -1.125 0 0 Z " fill="#A153E8" transform="translate(307,202)"/>
<path d="M0 0 C1.32 0.66 2.64 1.32 4 2 C3.07347299 3.17539996 2.13336613 4.34010577 1.1875 5.5 C0.66542969 6.1496875 0.14335937 6.799375 -0.39453125 7.46875 C-2 9 -2 9 -5 9 C-5 4.61031544 -2.87194899 3.23094261 0 0 Z " fill="#A19EEE" transform="translate(31,271)"/>
<path d="M0 0 C0.66 0 1.32 0 2 0 C2.3697479 5.54621849 2.3697479 5.54621849 0.625 7.6875 C0.08875 8.120625 -0.4475 8.55375 -1 9 C-1.99 10.485 -1.99 10.485 -3 12 C-3.66 12 -4.32 12 -5 12 C-5 10.68 -5 9.36 -5 8 C-4.01 8 -3.02 8 -2 8 C-1.855625 6.865625 -1.71125 5.73125 -1.5625 4.5625 C-1 1 -1 1 0 0 Z " fill="#8576E4" transform="translate(267,264)"/>
<path d="M0 0 C0.99 0.33 1.98 0.66 3 1 C3 3.64 3 6.28 3 9 C2.34 9 1.68 9 1 9 C1 8.01 1 7.02 1 6 C-0.65 6 -2.3 6 -4 6 C-4 5.34 -4 4.68 -4 4 C-3.01 4 -2.02 4 -1 4 C-0.67 2.68 -0.34 1.36 0 0 Z " fill="#7F59F8" transform="translate(45,258)"/>
<path d="M0 0 C3.99500618 1.3697164 6.80009492 3.25722422 10 6 C6.25 7.125 6.25 7.125 4 6 C3.67 6.66 3.34 7.32 3 8 C3 6.68 3 5.36 3 4 C2.34 4 1.68 4 1 4 C0.67 2.68 0.34 1.36 0 0 Z " fill="#A698ED" transform="translate(141,84)"/>
<path d="M0 0 C2.625 0.9375 2.625 0.9375 5 2 C4.67 2.99 4.34 3.98 4 5 C1.69 5 -0.62 5 -3 5 C-3.33 4.34 -3.66 3.68 -4 3 C-3.34 3 -2.68 3 -2 3 C-2 2.34 -2 1.68 -2 1 C-1.34 0.67 -0.68 0.34 0 0 Z " fill="#7A68EE" transform="translate(137,83)"/>
<path d="M0 0 C1.32 0 2.64 0 4 0 C4 0.66 4 1.32 4 2 C4.7425 1.896875 5.485 1.79375 6.25 1.6875 C9 2 9 2 11.3125 4.5 C12.1478125 5.7375 12.1478125 5.7375 13 7 C12.01 7.495 12.01 7.495 11 8 C8.3984375 6.6015625 8.3984375 6.6015625 5.375 4.625 C4.37210938 3.97789062 3.36921875 3.33078125 2.3359375 2.6640625 C1.56507813 2.11492187 0.79421875 1.56578125 0 1 C0 0.67 0 0.34 0 0 Z " fill="#B4BEEF" transform="translate(211,296)"/>
<path d="M0 0 C1.32 0 2.64 0 4 0 C4 0.66 4 1.32 4 2 C4.7425 1.896875 5.485 1.79375 6.25 1.6875 C9 2 9 2 11.3125 4.5 C12.1478125 5.7375 12.1478125 5.7375 13 7 C12.01 7.495 12.01 7.495 11 8 C8.3984375 6.6015625 8.3984375 6.6015625 5.375 4.625 C4.37210938 3.97789062 3.36921875 3.33078125 2.3359375 2.6640625 C1.56507813 2.11492187 0.79421875 1.56578125 0 1 C0 0.67 0 0.34 0 0 Z " fill="#C1ACEC" transform="translate(136,250)"/>
<path d="M0 0 C0.99 0.33 1.98 0.66 3 1 C2.67 1.33 2.34 1.66 2 2 C3.32 2.33 4.64 2.66 6 3 C6.33 4.65 6.66 6.3 7 8 C6.484375 7.731875 5.96875 7.46375 5.4375 7.1875 C2.33598585 5.67650593 -0.82262806 4.34427274 -4 3 C-2.1875 1.4375 -2.1875 1.4375 0 0 Z " fill="#9397F6" transform="translate(304,53)"/>
<path d="M0 0 C-1.93232821 0.86580287 -3.87107194 1.71729941 -5.8125 2.5625 C-6.89144531 3.03816406 -7.97039063 3.51382812 -9.08203125 4.00390625 C-12 5 -12 5 -15 4 C-14.34 3.67 -13.68 3.34 -13 3 C-13.33 2.34 -13.66 1.68 -14 1 C-12.23103898 0.63659714 -10.45973374 0.28459117 -8.6875 -0.0625 C-7.70136719 -0.25972656 -6.71523438 -0.45695312 -5.69921875 -0.66015625 C-3 -1 -3 -1 0 0 Z " fill="#BBC3F2" transform="translate(39,286)"/>
<path d="M0 0 C1.9375 0.3125 1.9375 0.3125 4 1 C4.33 1.99 4.66 2.98 5 4 C4.67 4.66 4.34 5.32 4 6 C2.35 6 0.7 6 -1 6 C-0.67 4.02 -0.34 2.04 0 0 Z " fill="#893AF3" transform="translate(211,130)"/>
<path d="M0 0 C0 0.66 0 1.32 0 2 C2.64 2 5.28 2 8 2 C8 2.33 8 2.66 8 3 C-0.04212755 3.16677223 -7.98603754 2.6466598 -16 2 C-16 1.67 -16 1.34 -16 1 C-13.70839646 0.83246763 -11.41671509 0.66599948 -9.125 0.5 C-7.84882813 0.4071875 -6.57265625 0.314375 -5.2578125 0.21875 C-3.50763316 0.10123196 -1.75412035 0 0 0 Z " fill="#9B49E0" transform="translate(168,160)"/>
<path d="M0 0 C3.75931429 1.03381143 5.16972619 2.16972619 8 5 C4.7 5 1.4 5 -2 5 C-2.33 4.01 -2.66 3.02 -3 2 C-2.01 1.34 -1.02 0.68 0 0 Z " fill="#A197F4" transform="translate(133,79)"/>
<path d="M0 0 C-2 3 -2 3 -5 4 C-5.66 4.66 -6.32 5.32 -7 6 C-9.125 5.625 -9.125 5.625 -11 5 C-8.55756257 0.11512514 -5.13433418 -0.35006824 0 0 Z " fill="#7D66EC" transform="translate(285,66)"/>
<path d="M0 0 C1.0470501 2.72233025 0.96834915 4.15508914 0.375 7.0625 C-1.2295793 10.49046486 -2.6338694 11.40551709 -6 13 C-4.58707905 8.1725201 -2.57025846 4.2837641 0 0 Z " fill="#C592E8" transform="translate(8,143)"/>
<path d="M0 0 C0.66 0 1.32 0 2 0 C2.33 0.99 2.66 1.98 3 3 C2.34 3.66 1.68 4.32 1 5 C0.83312552 7.58354218 0.83312552 7.58354218 1 10 C-0.32 9.67 -1.64 9.34 -3 9 C-2.67 8.01 -2.34 7.02 -2 6 C-1.835 5.13375 -1.67 4.2675 -1.5 3.375 C-1 1 -1 1 0 0 Z " fill="#7B73EE" transform="translate(52,70)"/>
<path d="M0 0 C-0.875 3.875 -0.875 3.875 -2 5 C-4.67058851 5.14115161 -7.32432238 5.04247107 -10 5 C-3.63636364 0 -3.63636364 0 0 0 Z " fill="#A39FEC" transform="translate(300,56)"/>
<path d="M0 0 C2.97 0.495 2.97 0.495 6 1 C6 3 6 5 6 7 C3.5625 6.3125 3.5625 6.3125 1 5 C0.1875 2.375 0.1875 2.375 0 0 Z " fill="#7A77EE" transform="translate(194,281)"/>
<path d="M0 0 C-2.31429821 1.54286547 -4.54571028 2.89992755 -7 4.1875 C-7.680625 4.55230469 -8.36125 4.91710937 -9.0625 5.29296875 C-11 6 -11 6 -14 5 C-12.68 4.67 -11.36 4.34 -10 4 C-10 3.34 -10 2.68 -10 2 C-6.3558226 -0.4294516 -4.28758728 -0.16179575 0 0 Z " fill="#C2A5ED" transform="translate(85,265)"/>
<path d="M0 0 C0.99 0.33 1.98 0.66 3 1 C3 2.98 3 4.96 3 7 C-0.37503669 5.8141763 -2.64722731 4.72426311 -5 2 C-3.35 2 -1.7 2 0 2 C0 1.34 0 0.68 0 0 Z " fill="#B16EEB" transform="translate(63,200)"/>
<path d="M0 0 C0.33 1.32 0.66 2.64 1 4 C0.01 4 -0.98 4 -2 4 C-1.34 5.65 -0.68 7.3 0 9 C-0.99 9.33 -1.98 9.66 -3 10 C-3.66 9.67 -4.32 9.34 -5 9 C-4.42647107 5.12867972 -2.51295648 2.91827204 0 0 Z " fill="#8639E1" transform="translate(65,231)"/>
<path d="M0 0 C2.9719385 1.12451727 5.33440687 2.22293791 8 4 C8 4.66 8 5.32 8 6 C5.03 6 2.06 6 -1 6 C0.32 5.67 1.64 5.34 3 5 C3 4.01 3 3.02 3 2 C2.01 1.67 1.02 1.34 0 1 C0 0.67 0 0.34 0 0 Z " fill="#BB94D8" transform="translate(254,153)"/>
<path d="M0 0 C0.99 0.66 1.98 1.32 3 2 C2.67 2.66 2.34 3.32 2 4 C2.99 4.33 3.98 4.66 5 5 C5.33 5.99 5.66 6.98 6 8 C2.62496331 6.8141763 0.35277269 5.72426311 -2 3 C-1.34 2.01 -0.68 1.02 0 0 Z " fill="#B671E9" transform="translate(214,114)"/>
<path d="M0 0 C1.65 0.33 3.3 0.66 5 1 C3.60667426 4.36720387 2.0210714 5.9859524 -1 8 C-1 6.35 -1 4.7 -1 3 C-0.34 3 0.32 3 1 3 C0.67 2.01 0.34 1.02 0 0 Z " fill="#9E6EE3" transform="translate(264,102)"/>
<path d="M0 0 C0.66 0.33 1.32 0.66 2 1 C2 1.99 2 2.98 2 4 C-1.58399147 6.38932765 -3.73195001 7 -8 7 C-7.67 6.01 -7.34 5.02 -7 4 C-5.01276732 3.29618843 -3.01222047 2.6288189 -1 2 C-0.67 1.34 -0.34 0.68 0 0 Z " fill="#8A30EE" transform="translate(228,90)"/>
<path d="M0 0 C0.66 0.33 1.32 0.66 2 1 C1.34 2.32 0.68 3.64 0 5 C-2.64 4.34 -5.28 3.68 -8 3 C-5.36657694 0.36657694 -3.69534435 0 0 0 Z " fill="#8153F8" transform="translate(270,75)"/>
<path d="M0 0 C-0.7109375 1.953125 -0.7109375 1.953125 -2 4 C-4.1640625 4.609375 -4.1640625 4.609375 -6.625 4.75 C-7.44226563 4.80671875 -8.25953125 4.8634375 -9.1015625 4.921875 C-9.72804688 4.94765625 -10.35453125 4.9734375 -11 5 C-4.63636364 0 -4.63636364 0 0 0 Z " fill="#B69FEB" transform="translate(267,72)"/>
<path d="M0 0 C-0.33 0.99 -0.66 1.98 -1 3 C-5.75 4.125 -5.75 4.125 -8 3 C-8.99 2.67 -9.98 2.34 -11 2 C-7.36576791 -0.32590854 -4.22911669 -0.16265833 0 0 Z " fill="#777DEA" transform="translate(314,53)"/>
<path d="M0 0 C2.64 0.66 5.28 1.32 8 2 C8 2.66 8 3.32 8 4 C8.66 4.33 9.32 4.66 10 5 C4.60158311 5.49076517 4.60158311 5.49076517 1.625 3.0625 C0 1 0 1 0 0 Z " fill="#A185E3" transform="translate(130,245)"/>
<path d="M0 0 C4.10811428 1.44992269 7.46855666 3.45407573 11 6 C11 6.33 11 6.66 11 7 C9.02 7 7.04 7 5 7 C4.731875 6.401875 4.46375 5.80375 4.1875 5.1875 C3.01506533 3.02775192 1.80630718 1.64209744 0 0 Z " fill="#CB94EE" transform="translate(87,230)"/>
<path d="M0 0 C2.0625 0.4375 2.0625 0.4375 4 1 C4 1.99 4 2.98 4 4 C4.66 4 5.32 4 6 4 C6.33 5.32 6.66 6.64 7 8 C4.5625 7.25 4.5625 7.25 2 6 C1.3125 3.9375 1.3125 3.9375 1 2 C0.34 1.67 -0.32 1.34 -1 1 C-0.67 0.67 -0.34 0.34 0 0 Z " fill="#9A6AE8" transform="translate(108,229)"/>
<path d="M0 0 C2.69122652 1.25173326 5.17607821 2.67139202 7.6875 4.25 C5.6875 5.25 5.6875 5.25 3.8125 4.76171875 C2.760625 4.35373047 2.760625 4.35373047 1.6875 3.9375 C0.98625 3.67324219 0.285 3.40898437 -0.4375 3.13671875 C-2.3125 2.25 -2.3125 2.25 -4.3125 0.25 C-2.3125 -0.75 -2.3125 -0.75 0 0 Z " fill="#BC89EA" transform="translate(246.3125,147.75)"/>
<path d="M0 0 C-1.32 0.33 -2.64 0.66 -4 1 C-3.67 2.98 -3.34 4.96 -3 7 C-4.32 7.33 -5.64 7.66 -7 8 C-7.33 7.34 -7.66 6.68 -8 6 C-7.01 6 -6.02 6 -5 6 C-5.66 4.35 -6.32 2.7 -7 1 C-3.375 -1.125 -3.375 -1.125 0 0 Z " fill="#A97CF5" transform="translate(256,78)"/>
<path d="M0 0 C0.66 0 1.32 0 2 0 C2 0.99 2 1.98 2 3 C1.34 3 0.68 3 0 3 C0 3.66 0 4.32 0 5 C-1.98 5.99 -1.98 5.99 -4 7 C-4.33 5.02 -4.66 3.04 -5 1 C-3.68 1 -2.36 1 -1 1 C-0.67 0.67 -0.34 0.34 0 0 Z " fill="#A69AEA" transform="translate(301,69)"/>
<path d="M0 0 C1.32 1.32 2.64 2.64 4 4 C3.34 5.32 2.68 6.64 2 8 C-0.7839183 6.60804085 -0.97898997 4.84424221 -2 2 C-1.34 1.34 -0.68 0.68 0 0 Z " fill="#837DF2" transform="translate(302,62)"/>
<path d="M0 0 C1.98 0.99 1.98 0.99 4 2 C2.92598892 4.91517292 2.22189824 6.77810176 0 9 C0 6.03 0 3.06 0 0 Z " fill="#AD7BEC" transform="translate(297,211)"/>
<path d="M0 0 C0.66 1.32 1.32 2.64 2 4 C0.35 5.32 -1.3 6.64 -3 8 C-2.74438677 5.6568787 -2.40729228 3.32156597 -2 1 C-1.34 0.67 -0.68 0.34 0 0 Z " fill="#9D45E9" transform="translate(3,155)"/>
<path d="M0 0 C0.99 0.33 1.98 0.66 3 1 C1.02 3.31 -0.96 5.62 -3 8 C-3.33 7.01 -3.66 6.02 -4 5 C-3.34 5 -2.68 5 -2 5 C-2 3.68 -2 2.36 -2 1 C-1.34 0.67 -0.68 0.34 0 0 Z " fill="#AA60DE" transform="translate(246,123)"/>
<path d="M0 0 C-0.35049575 3.24208567 -0.56221181 4.61527704 -3.0625 6.8125 C-3.701875 7.204375 -4.34125 7.59625 -5 8 C-4.74438677 5.6568787 -4.40729228 3.32156597 -4 1 C-2 0 -2 0 0 0 Z " fill="#9A79E5" transform="translate(281,89)"/>
<path d="M0 0 C0.66 0 1.32 0 2 0 C2.33 1.65 2.66 3.3 3 5 C3.99 5 4.98 5 6 5 C6.33 5.99 6.66 6.98 7 8 C3.62496331 6.8141763 1.35277269 5.72426311 -1 3 C-0.67 2.01 -0.34 1.02 0 0 Z " fill="#B5B0F4" transform="translate(181,274)"/>
<path d="M0 0 C4.29 0.33 8.58 0.66 13 1 C12.67 1.66 12.34 2.32 12 3 C7.53160785 3.21278058 4.17737474 2.59138085 0 1 C0 0.67 0 0.34 0 0 Z " fill="#9A44E3" transform="translate(117,193)"/>
<path d="M0 0 C1.32 0.33 2.64 0.66 4 1 C4 1.66 4 2.32 4 3 C4.66 3 5.32 3 6 3 C6 3.66 6 4.32 6 5 C4.02 5.66 2.04 6.32 0 7 C0.66 5.35 1.32 3.7 2 2 C1.34 2 0.68 2 0 2 C0 1.34 0 0.68 0 0 Z " fill="#8935F2" transform="translate(224,137)"/>
<path d="M0 0 C0.66 0 1.32 0 2 0 C2 0.99 2 1.98 2 3 C1.34 3 0.68 3 0 3 C0 3.66 0 4.32 0 5 C-2.375 5.625 -2.375 5.625 -5 6 C-5.66 5.34 -6.32 4.68 -7 4 C-5.824375 3.566875 -5.824375 3.566875 -4.625 3.125 C-1.90328368 2.15087746 -1.90328368 2.15087746 0 0 Z " fill="#9020EF" transform="translate(242,125)"/>
<path d="M0 0 C0.33 0.66 0.66 1.32 1 2 C0.06421005 4.35981813 -0.93347808 6.69631264 -2 9 C-2.66 8.67 -3.32 8.34 -4 8 C-2.25 2.25 -2.25 2.25 0 0 Z " fill="#A07EEC" transform="translate(49,249)"/>
<path d="M0 0 C0.6875 1.6875 0.6875 1.6875 1 4 C-0.3125 6.75 -0.3125 6.75 -2 9 C-2.66 9 -3.32 9 -4 9 C-2.94124926 5.59687262 -1.99097846 2.98646769 0 0 Z " fill="#B4C3EF" transform="translate(67,41)"/>
<path d="M0 0 C0.99 0.33 1.98 0.66 3 1 C3.34342449 2.33076989 3.67619874 3.66431979 4 5 C4.99 5.66 5.98 6.32 7 7 C5.35 6.67 3.7 6.34 2 6 C2 5.34 2 4.68 2 4 C1.01 3.67 0.02 3.34 -1 3 C-0.67 2.01 -0.34 1.02 0 0 Z " fill="#7587ED" transform="translate(221,297)"/>
<path d="M0 0 C0.8971875 0.5259375 0.8971875 0.5259375 1.8125 1.0625 C-1.32248292 2.92026765 -3.56221432 3.26390476 -7.1875 3.0625 C-6.5275 2.7325 -5.8675 2.4025 -5.1875 2.0625 C-5.1875 1.4025 -5.1875 0.7425 -5.1875 0.0625 C-2.1875 -0.9375 -2.1875 -0.9375 0 0 Z " fill="#9F8DE5" transform="translate(60.1875,274.9375)"/>
<path d="M0 0 C1.98 0.495 1.98 0.495 4 1 C2.7191375 4.64553172 1.83328987 6.16671013 -1 9 C-0.67 6.03 -0.34 3.06 0 0 Z " fill="#BC96EB" transform="translate(293,219)"/>
<path d="M0 0 C1.32 0.33 2.64 0.66 4 1 C2.92598892 3.91517292 2.22189824 5.77810176 0 8 C0 5.36 0 2.72 0 0 Z " fill="#B46FE6" transform="translate(307,194)"/>
<path d="M0 0 C3.99500618 1.3697164 6.80009492 3.25722422 10 6 C6.38238619 5.67112602 4.44334967 5.37334709 1.625 3 C0 1 0 1 0 0 Z " fill="#B7B4EC" transform="translate(123,73)"/>
<path d="M0 0 C1.9375 0.3125 1.9375 0.3125 4 1 C4.33 1.99 4.66 2.98 5 4 C4.01 4 3.02 4 2 4 C1.67 4.66 1.34 5.32 1 6 C0 5 0 5 -0.0625 2.4375 C-0.041875 1.633125 -0.02125 0.82875 0 0 Z " fill="#8BA4E9" transform="translate(68,40)"/>
<path d="M0 0 C3.37503669 1.1858237 5.64722731 2.27573689 8 5 C5.125 4.75 5.125 4.75 2 4 C0.625 1.9375 0.625 1.9375 0 0 Z " fill="#C88DEA" transform="translate(98,237)"/>
<path d="M0 0 C2.875 0.25 2.875 0.25 6 1 C7.375 3.0625 7.375 3.0625 8 5 C4.62496331 3.8141763 2.35277269 2.72426311 0 0 Z " fill="#C49FEB" transform="translate(89,221)"/>
<path d="M0 0 C2.31 0 4.62 0 7 0 C5.515 1.485 5.515 1.485 4 3 C3.01 2.67 2.02 2.34 1 2 C0.67 2.66 0.34 3.32 0 4 C0 2.68 0 1.36 0 0 Z " fill="#9224F7" transform="translate(62,198)"/>
<path d="M0 0 C5.94 0.99 5.94 0.99 12 2 C12 2.33 12 2.66 12 3 C8.04 3 4.08 3 0 3 C0 2.01 0 1.02 0 0 Z " fill="#9946E5" transform="translate(0,167)"/>
<path d="M0 0 C2.91517292 1.07401108 4.77810176 1.77810176 7 4 C5.02 4.33 3.04 4.66 1 5 C0.67 3.35 0.34 1.7 0 0 Z " fill="#B191ED" transform="translate(182,109)"/>
<path d="M0 0 C0.88492145 2.47778006 1.11637742 3.66056586 0.25 6.1875 C-1 8 -1 8 -4 9 C-2.94124926 5.59687262 -1.99097846 2.98646769 0 0 Z " fill="#BDADED" transform="translate(42,85)"/>
<path d="M0 0 C-1.20381448 2.49361571 -2.45428722 4.68143083 -4 7 C-4.66 6.67 -5.32 6.34 -6 6 C-3.84615385 0 -3.84615385 0 0 0 Z " fill="#AEAEE7" transform="translate(311,61)"/>
<path d="M0 0 C2.31 0.33 4.62 0.66 7 1 C7 1.33 7 1.66 7 2 C5.02 2 3.04 2 1 2 C1 2.99 1 3.98 1 5 C0.01 5 -0.98 5 -2 5 C-1.34 3.35 -0.68 1.7 0 0 Z " fill="#8537E8" transform="translate(91,256)"/>
<path d="M0 0 C0.99 0 1.98 0 3 0 C1.81323934 4.10801767 1.10551666 5.89448334 -2 9 C-1.34 6.03 -0.68 3.06 0 0 Z " fill="#C9B5F1" transform="translate(275,252)"/>
<path d="M0 0 C1.33332095 2.6666419 0.67102033 4.16680303 0 7 C-1.32 7 -2.64 7 -4 7 C-2.92598892 4.08482708 -2.22189824 2.22189824 0 0 Z " fill="#7F4DE1" transform="translate(53,246)"/>
<path d="M0 0 C2.31 0.33 4.62 0.66 7 1 C7.33 2.32 7.66 3.64 8 5 C4.62496331 3.8141763 2.35277269 2.72426311 0 0 Z " fill="#CD93ED" transform="translate(220,122)"/>
<path d="M0 0 C2.97 0.495 2.97 0.495 6 1 C6 1.66 6 2.32 6 3 C4.35 3.66 2.7 4.32 1 5 C0.67 3.35 0.34 1.7 0 0 Z " fill="#7282F2" transform="translate(92,57)"/>
</svg>
